<svg width="1260" height="177" viewBox="0 0 1260 177" fill="none" xmlns="http://www.w3.org/2000/svg">
<g filter="url(#filter0_d_0_1399)">
<path d="M4.77965 16.7089C3.83112 7.80334 10.8473 0.0563651 19.803 0.120692L1241.11 8.89303C1249.35 8.95223 1256 15.6504 1256 23.8926V154C1256 162.284 1249.28 169 1241 169H34.4872C26.8179 169 20.3838 163.215 19.5716 155.589L4.77965 16.7089Z" fill="url(#paint0_linear_0_1399)"/>
<path d="M5.77403 16.603C4.88874 8.29114 11.4371 1.06063 19.7958 1.12067L1241.1 9.89301C1248.79 9.94826 1255 16.1999 1255 23.8926V154C1255 161.732 1248.73 168 1241 168H34.4872C27.3292 168 21.3241 162.601 20.5659 155.483L5.77403 16.603Z" stroke="white" stroke-width="2"/>
</g>
<defs>
<filter id="filter0_d_0_1399" x="0.693604" y="0.120117" width="1259.31" height="176.88" filterUnits="userSpaceOnUse" color-interpolation-filters="sRGB">
<feFlood flood-opacity="0" result="BackgroundImageFix"/>
<feColorMatrix in="SourceAlpha" type="matrix" values="0 0 0 0 0 0 0 0 0 0 0 0 0 0 0 0 0 0 127 0" result="hardAlpha"/>
<feOffset dy="4"/>
<feGaussianBlur stdDeviation="2"/>
<feComposite in2="hardAlpha" operator="out"/>
<feColorMatrix type="matrix" values="0 0 0 0 0.00392157 0 0 0 0 0.121569 0 0 0 0 0.309804 0 0 0 1 0"/>
<feBlend mode="normal" in2="BackgroundImageFix" result="effect1_dropShadow_0_1399"/>
<feBlend mode="normal" in="SourceGraphic" in2="effect1_dropShadow_0_1399" result="shape"/>
</filter>
<linearGradient id="paint0_linear_0_1399" x1="21" y1="89" x2="1256" y2="89" gradientUnits="userSpaceOnUse">
<stop stop-color="#091E3A"/>
<stop offset="0.5" stop-color="#2F80ED"/>
<stop offset="1" stop-color="#000B48"/>
</linearGradient>
</defs>
</svg>
