<svg width="963" height="80" viewBox="0 0 963 80" fill="none" xmlns="http://www.w3.org/2000/svg">
<g clip-path="url(#clip0_0_1400)">
<path d="M91.6837 59.005L77.2845 30.7032C77.1707 30.4454 77.1102 30.1741 77.1055 29.9004C77.0774 29.3221 77.3294 28.7579 77.8075 28.328C78.0549 28.1227 78.3537 27.9628 78.6837 27.8589C79.0138 27.755 79.3674 27.7097 79.7211 27.7259C80.2559 27.732 80.7754 27.8722 81.2078 28.1273C81.6579 28.4005 82.0097 28.7663 82.2264 29.1867L95.9236 56.8751L109.621 29.1867C109.841 28.7649 110.198 28.399 110.653 28.1273C111.086 27.8722 111.605 27.732 112.14 27.7259C112.491 27.7113 112.842 27.7574 113.17 27.8612C113.497 27.9651 113.794 28.1242 114.04 28.328C114.523 28.7562 114.78 29.3206 114.755 29.9004C114.751 30.1741 114.69 30.4454 114.577 30.7032L100.177 59.005C99.9308 59.6267 99.4506 60.1704 98.804 60.5603C98.1574 60.9502 97.3766 61.1667 96.5706 61.1795H95.2903C94.4844 61.1667 93.7037 60.9502 93.0569 60.5603C92.4103 60.1704 91.9303 59.6267 91.6837 59.005Z" fill="white"/>
<path d="M120.881 60.3096C120.637 60.1107 120.445 59.8738 120.317 59.6131C120.19 59.3524 120.129 59.0735 120.138 58.7931V30.1345C120.129 29.8474 120.19 29.5618 120.318 29.294C120.445 29.0261 120.637 28.7812 120.881 28.5733C121.121 28.3677 121.412 28.2058 121.734 28.0981C122.057 27.9904 122.404 27.9396 122.753 27.9488H146.156C146.485 27.9423 146.813 27.9926 147.116 28.0965C147.42 28.2003 147.693 28.3552 147.918 28.551C148.157 28.7344 148.346 28.9559 148.474 29.2016C148.602 29.4472 148.666 29.7117 148.661 29.9783C148.67 30.2422 148.609 30.5046 148.48 30.7473C148.352 30.9899 148.16 31.207 147.918 31.3834C147.684 31.5706 147.406 31.7183 147.102 31.8179C146.797 31.9174 146.47 31.9669 146.142 31.9633H125.451V42.4008H144.063C144.393 42.3943 144.72 42.4446 145.024 42.5485C145.328 42.6522 145.601 42.8072 145.825 43.0029C146.061 43.1879 146.249 43.4098 146.377 43.655C146.505 43.9004 146.57 44.1641 146.569 44.4304C146.578 44.6942 146.516 44.9566 146.388 45.1993C146.26 45.4418 146.068 45.6589 145.825 45.8353C145.593 46.0213 145.318 46.1681 145.016 46.2677C144.713 46.3673 144.389 46.4174 144.063 46.4152H125.451V56.8973H146.142C146.474 56.8893 146.804 56.9388 147.11 57.0427C147.416 57.1466 147.692 57.3023 147.918 57.4996C148.158 57.6842 148.349 57.9076 148.477 58.1552C148.605 58.4029 148.667 58.6695 148.661 58.9381C148.67 59.2019 148.609 59.4643 148.48 59.707C148.352 59.9495 148.16 60.1667 147.918 60.343C147.683 60.5283 147.405 60.6739 147.1 60.7716C146.795 60.8693 146.469 60.9168 146.142 60.9118H122.753C122.405 60.9323 122.056 60.8888 121.732 60.7845C121.408 60.6802 121.117 60.5178 120.881 60.3096Z" fill="white"/>
<path d="M80.5466 58.2023L66.1336 29.9006C65.8879 29.2806 65.4098 28.7382 64.7659 28.3485C64.122 27.9588 63.3443 27.7412 62.5407 27.7261H61.2743C60.4683 27.7389 59.6875 27.9554 59.0409 28.3453C58.3943 28.7351 57.9141 29.2789 57.6675 29.9006L51.404 42.2338H46.6548C45.9718 42.2397 45.3192 42.4627 44.8376 42.8549C44.3559 43.2472 44.084 43.7771 44.0805 44.3302V44.3526C44.084 44.9057 44.3559 45.4356 44.8376 45.8278C45.3192 46.22 45.9718 46.4431 46.6548 46.4489H49.2014L43.227 58.2023C43.1132 58.4602 43.0527 58.7315 43.048 59.0052C43.0201 59.5834 43.2719 60.1476 43.7502 60.5775C43.9973 60.7828 44.2962 60.9428 44.6262 61.0467C44.9563 61.1505 45.3101 61.1959 45.6635 61.1797C46.1984 61.1735 46.7178 61.0333 47.1503 60.7783C47.6005 60.5051 47.9522 60.1393 48.169 59.7189L54.7629 46.4489H59.292C59.9748 46.4431 60.6275 46.22 61.1091 45.8278C61.5907 45.4356 61.8626 44.9057 61.8662 44.3526V44.2967C61.8626 43.7436 61.5907 43.2138 61.1091 42.8215C60.6275 42.4293 59.9748 42.2062 59.292 42.2004H56.8416L61.9075 32.0304L75.6047 59.7189C75.8215 60.1393 76.1732 60.5051 76.6233 60.7783C77.0557 61.0333 77.5751 61.1735 78.11 61.1797C78.4659 61.1975 78.8223 61.153 79.1549 61.0491C79.4875 60.9451 79.7884 60.7843 80.0372 60.5775C80.5104 60.1459 80.7574 59.5819 80.7256 59.0052C80.743 58.7311 80.6865 58.4572 80.5604 58.2023H80.5466Z" fill="white"/>
<path d="M37.5145 58.2023L23.1153 29.9006C22.868 29.2771 22.3857 28.7321 21.7363 28.3421C21.087 27.952 20.303 27.7366 19.4947 27.7261H18.2284C17.4224 27.7389 16.6416 27.9554 15.995 28.3453C15.3482 28.7351 14.8681 29.2789 14.6216 29.9006L8.35807 42.2338H3.60879C2.92592 42.2397 2.27327 42.4627 1.79166 42.8549C1.31006 43.2472 1.03813 43.7771 1.03456 44.3302V44.3526C1.03813 44.9057 1.31006 45.4356 1.79166 45.8278C2.27327 46.22 2.92592 46.4431 3.60879 46.4489H6.15551L0.181066 58.2023C0.0672517 58.4602 0.00678551 58.7315 0.00210722 59.0052C-0.025892 59.5834 0.226032 60.1476 0.704173 60.5775C0.951482 60.7828 1.25024 60.9428 1.58031 61.0467C1.91038 61.1505 2.26411 61.1959 2.61765 61.1797C3.15254 61.1735 3.67192 61.0333 4.10438 60.7783C4.55453 60.5051 4.90625 60.1393 5.12306 59.7189L11.717 46.4489H16.2735C16.9587 46.446 17.615 46.2242 18.0995 45.8317C18.5841 45.4392 18.8579 44.9076 18.8615 44.3526V44.2967C18.8579 43.7417 18.5841 43.2101 18.0995 42.8176C17.615 42.425 16.9587 42.2033 16.2735 42.2004H13.8369L18.8615 32.0304L32.5586 59.7189C32.7755 60.1393 33.1273 60.5051 33.5774 60.7783C34.0098 61.0333 34.5292 61.1735 35.0641 61.1797C35.4199 61.1975 35.7764 61.153 36.109 61.0491C36.4416 60.9451 36.7425 60.7843 36.9913 60.5775C37.4645 60.1459 37.7114 59.5819 37.6797 59.0052C37.6969 58.7311 37.6406 58.4572 37.5145 58.2023Z" fill="white"/>
</g>
<g clip-path="url(#clip1_0_1400)">
<path fill-rule="evenodd" clip-rule="evenodd" d="M560.577 30.2627H566.982L573.731 53.4303L580.48 30.2627H586.737L577.179 59.9894H570.135L560.577 30.2627Z" fill="white"/>
<path fill-rule="evenodd" clip-rule="evenodd" d="M607.749 45.5632C607.749 40.4434 604.887 36.7949 600.592 36.7949C596.298 36.7949 593.386 40.4434 593.386 45.5632C593.386 50.6831 596.298 54.3316 600.592 54.3316C604.887 54.3316 607.749 50.6831 607.749 45.5632ZM587.463 45.8574C587.463 36.6183 592.892 30.2627 600.642 30.2627C608.292 30.2627 613.623 36.4411 613.623 45.7985V60.0987H608.243V54.3905C606.762 58.6869 603.455 60.8637 599.605 60.8637C593.682 60.8637 587.463 55.8027 587.463 45.8574Z" fill="white"/>
<path fill-rule="evenodd" clip-rule="evenodd" d="M617.983 44.4774C617.983 34.5185 622.944 29.3882 630.336 29.3882C637.727 29.3882 642.689 34.4581 642.689 44.4774V59.9892H636.664V44.4774C636.664 38.8039 634.133 36.0878 630.336 36.0878C626.539 36.0878 624.007 38.8039 624.007 44.4774V59.9892H617.983V44.4774Z" fill="white"/>
<path fill-rule="evenodd" clip-rule="evenodd" d="M646.321 48.6326V19.771H652.316V30.3157H665.158V36.823H652.316V48.6326C652.316 52.6097 654.027 54.1757 656.495 54.1757C658.962 54.1757 660.675 52.6694 660.675 48.6326V47.8492H666.668V48.6326C666.668 56.8871 662.539 60.8638 656.495 60.8638C650.452 60.8638 646.321 56.8871 646.321 48.6326Z" fill="white"/>
<path fill-rule="evenodd" clip-rule="evenodd" d="M672.845 25.8909C675.171 25.8909 676.841 23.8943 676.841 21.1124C676.841 18.3294 675.171 16.2734 672.845 16.2734C670.517 16.2734 668.848 18.3294 668.848 21.1124C668.848 23.8943 670.517 25.8909 672.845 25.8909Z" fill="white"/>
<path fill-rule="evenodd" clip-rule="evenodd" d="M669.574 59.9894H675.387V30.2627H669.574V59.9894Z" fill="white"/>
<path fill-rule="evenodd" clip-rule="evenodd" d="M680.197 51.3721H686.241C686.292 53.3419 687.753 54.6553 690.674 54.6553C693.747 54.6553 695.057 53.1629 695.057 51.3721C695.057 49.1036 692.841 48.8052 690.171 48.3873C686.341 47.7904 680.7 47.0143 680.7 39.7913C680.7 33.7615 684.579 29.8223 690.574 29.8223C696.669 29.8223 700.396 33.8815 700.548 39.075H694.604C694.453 37.2841 693.041 36.0305 690.674 36.0305C688.055 36.0305 686.744 37.5228 686.744 39.254C686.744 41.5224 689.013 41.8806 691.682 42.2985C695.007 42.8356 701.102 43.6117 701.102 50.9542C701.102 56.9236 697.022 60.8634 690.674 60.8634C684.328 60.8634 680.347 56.8638 680.197 51.3721Z" fill="white"/>
<path fill-rule="evenodd" clip-rule="evenodd" d="M546.739 29.6792C544.33 29.6792 542.141 30.2984 540.26 31.4114C539.251 32.0095 538.33 32.7491 537.513 33.6147C537.091 34.0629 536.698 34.5455 536.332 35.0571L525.129 48.8878C525.129 48.8878 521.322 54.0942 518.025 54.0942C513.641 54.0942 510.669 50.39 510.67 45.196C510.67 44.7363 510.708 44.2876 510.766 43.8452C511.306 39.6552 514.293 36.3351 517.961 36.3053C520.605 36.2841 522.76 37.5843 524.062 39.7345L528.136 34.757C525.801 31.5965 522.274 29.6792 518.025 29.6792C510.167 29.6792 504.625 36.2461 504.625 45.2003C504.625 50.0644 506.263 54.2218 509.018 57.0063C510.399 58.5074 512.301 59.6508 514.497 60.2472C514.511 60.2509 514.525 60.2559 514.539 60.2596C514.673 60.296 514.809 60.3275 514.945 60.3595C515.924 60.594 516.952 60.7204 518.025 60.7204C518.201 60.7204 518.371 60.703 518.545 60.696C518.561 60.6954 518.576 60.6943 518.592 60.6938C519.325 60.6629 520.037 60.5766 520.727 60.4247C523.242 59.8987 525.414 58.6599 526.949 56.9857C526.95 56.984 526.952 56.983 526.954 56.9818C527.06 56.8814 527.156 56.7654 527.254 56.6529C527.303 56.5971 527.357 56.5473 527.404 56.4886L539.73 41.107L541.081 39.3486C542.176 38.0516 543.849 36.231 546.995 36.282C551.013 36.3477 554.127 40.4189 554.126 45.1809C554.124 50.372 551.467 53.9965 547.085 53.9965C544.234 53.9965 541.875 52.4543 540.569 49.9504C539.868 48.6067 539.466 46.9901 539.466 45.1759C539.466 45.1346 539.47 45.0956 539.47 45.055L534.397 51.5627C534.88 52.926 535.522 54.1725 536.3 55.2785C538.678 58.6593 542.342 60.7204 546.739 60.7204C554.597 60.7204 560.138 54.1544 560.138 45.2003C560.138 36.2461 554.597 29.6792 546.739 29.6792Z" fill="white"/>
</g>
<g clip-path="url(#clip2_0_1400)">
<path d="M239.924 74.4556C255.205 74.4556 267.592 61.5118 267.592 45.5447C267.592 29.5776 255.205 16.6338 239.924 16.6338C224.644 16.6338 212.256 29.5776 212.256 45.5447C212.256 61.5118 224.644 74.4556 239.924 74.4556Z" fill="white" fill-opacity="0.05"/>
<path d="M261.801 43.4999C262.004 39.4182 259.051 36.7106 255.718 34.8516L253.551 47.1368C255.051 47.0561 255.785 47.6057 256.051 47.8643C256.384 48.1876 257.218 49.1574 256.218 50.6931C258.301 50.3698 261.555 48.4301 261.801 43.4999Z" fill="white"/>
<path fill-rule="evenodd" clip-rule="evenodd" d="M234.63 28.8184L232.209 26.2628C235.853 25.7956 245.47 26.3947 254.779 32.528C254.936 33.1874 254.779 34.1767 254.779 34.1767L255.56 34.5889C256.237 35.6057 257.388 38.4965 256.576 41.9259C255.764 45.3552 254.363 46.8172 253.764 47.1194C252.515 47.1194 250.39 47.8778 249.703 51.2413C249.016 54.6047 247.699 55.3357 247.126 55.2807L233.38 55.4456L224.321 49.8398L222.993 38.2162L225.57 34.5889L230.178 30.632L233.458 29.2305L234.63 28.8184ZM250.864 33.62C250.258 34.2831 249.691 34.6014 249.529 34.6876C245.99 33.8968 244.715 31.9733 244.715 31.9733C248.053 31.9518 251.067 32.7859 253.271 34.1968C253.271 34.1968 252.078 33.7906 250.864 33.62Z" fill="white"/>
<path fill-rule="evenodd" clip-rule="evenodd" d="M250.111 51.5211C247.677 52.7567 244.791 53.472 241.696 53.472C232.998 53.472 225.946 47.8205 225.946 40.8491C225.946 35.6994 229.794 31.2698 235.311 29.3066C224.818 29.9317 216.386 38.6496 216.386 49.4065C216.386 61.8211 227.086 72.0789 240.286 72.0789C250.142 72.0789 258.346 66.169 262.636 58.2618C256.734 59.6346 249.746 57.0245 250.111 51.5211Z" fill="white"/>
<path fill-rule="evenodd" clip-rule="evenodd" d="M333.866 34.2967C332.212 32.4852 329.676 31.415 326.442 31.415H314.974V60.2325H319.495L319.494 51.3576L319.49 51.3598V44.9335L319.494 44.934L319.495 36.0257H326.074C329.416 36.0257 331.358 37.634 331.403 40.6914L331.404 40.8835L331.401 41.0838C331.31 43.9309 329.272 45.7002 326.111 45.7002L324.165 45.6992L321.837 50.1868L325.155 50.1875L331.477 60.2325H336.844L329.896 49.3229L330.128 49.2454C333.533 48.0591 335.944 45.2892 335.998 40.7491L335.999 40.5131C335.999 38.0019 335.226 35.9023 333.866 34.2967ZM392.772 35.2634C390.13 32.7929 387.342 31.4159 382.902 31.4159C375.21 31.4159 369.779 37.9937 369.662 45.8186L369.659 46.1579C369.659 54.42 374.943 60.7382 382.977 60.7382C387.526 60.7382 391.121 58.7132 393.688 56.3236V44.4165L389.323 48.7905V54.0555C387.746 55.3516 385.582 56.2021 383.124 56.2021C377.955 56.2021 374.496 52.0344 374.395 46.3333L374.392 45.996C374.392 40.569 378.025 36.0329 382.72 36.0329C385.948 36.0329 387.93 37.167 389.91 39.0299L392.772 35.2634ZM425.347 45.996C425.347 38.0174 419.845 31.4159 411.956 31.4159C404.154 31.4159 398.613 37.9952 398.494 45.8213L398.493 46.1579C398.493 54.1366 403.997 60.7382 411.883 60.7382C419.686 60.7382 425.226 54.1589 425.344 46.3326L425.347 45.996ZM309.531 60.2521L298.232 31.6993H294.05L282.75 60.2521L287.262 60.2519L296.067 37.6529L304.938 60.2519L309.531 60.2521ZM367.729 60.2521L356.43 31.6993H352.248L340.948 60.2521L345.46 60.2519L354.266 37.6529L363.136 60.2519L367.729 60.2521ZM448.155 51.504L434.398 31.9018H430.215V60.2521H434.654V40.0831L448.815 60.2521H452.594V31.9018H448.155V51.504ZM403.226 45.996C403.226 40.4879 406.784 36.0329 411.883 36.0329C416.944 36.0329 420.508 40.4365 420.611 45.8346L420.614 46.1579C420.614 51.666 417.056 56.1211 411.956 56.1211C406.896 56.1211 403.332 51.7175 403.227 46.3194L403.226 45.996Z" fill="white"/>
</g>
<g clip-path="url(#clip3_0_1400)">
<path d="M768.164 55.3515C759.831 55.3515 753.796 51.4596 753.796 44.5407C753.796 37.6218 760.405 33.5137 768.452 33.5137C776.498 33.5137 782.82 37.4056 782.82 44.3245C782.82 51.2434 776.211 55.3515 768.164 55.3515ZM768.164 38.7029C764.429 38.7029 762.417 40.865 762.417 44.5407C762.417 48.0002 764.429 50.1623 768.164 50.1623C771.9 50.1623 773.912 48.0002 773.912 44.5407C773.912 40.865 771.9 38.7029 768.164 38.7029Z" fill="white"/>
<path d="M820.178 42.5948C820.178 40.2164 818.741 39.3515 816.442 39.3515C814.718 39.3515 813.281 40.0002 812.132 40.6488V54.7029H803.223V42.5948C803.223 40.2164 801.786 39.3515 799.488 39.3515C797.763 39.3515 796.326 39.7839 795.177 40.6488V54.7029H786.269V33.9461H795.177V36.5407C797.476 34.5948 800.35 33.5137 803.798 33.5137C807.246 33.5137 810.12 34.811 811.557 37.1894C814.143 35.0272 817.304 33.5137 821.04 33.5137C826.213 33.5137 829.661 36.1083 829.661 40.6488V54.7029H820.753L820.178 42.5948Z" fill="white"/>
<path d="M838.282 31.3514C835.121 31.3514 833.11 30.0541 833.11 27.6757C833.11 25.2973 835.121 24 838.282 24C841.731 24 843.455 25.2973 843.455 27.6757C843.742 30.0541 841.731 31.3514 838.282 31.3514ZM833.684 33.9459H842.593V54.7027H833.684V33.9459Z" fill="white"/>
<path d="M857.249 55.3511C853.513 55.3511 848.627 54.7025 845.754 53.6214L847.478 48.8646C850.639 50.1619 854.087 50.8106 857.536 50.8106C860.122 50.8106 861.272 50.1619 861.272 49.0808C861.272 47.9998 859.835 47.5673 856.674 46.9187C850.352 46.0538 846.329 44.3241 846.329 40.216C846.329 36.3241 850.639 33.7295 858.398 33.7295C862.134 33.7295 866.732 34.5944 869.318 35.4592L867.594 40.216C864.433 39.1349 860.697 38.4862 858.111 38.4862C855.812 38.4862 854.662 38.9187 854.662 39.9998C854.662 41.0808 856.386 41.5133 859.26 41.9457C865.582 43.0268 869.605 44.5403 869.605 48.6484C869.605 52.3241 865.295 55.3511 857.249 55.3511Z" fill="white"/>
<path d="M887.422 50.3781C890.296 50.3781 893.457 49.5133 896.331 48.4322L897.193 53.6214C894.319 54.7025 890.583 55.3511 886.56 55.3511C877.364 55.3511 871.33 51.4592 871.33 44.7565C871.33 38.0538 877.364 33.7295 885.985 33.7295C893.744 33.7295 898.055 37.189 898.055 42.1619C898.055 43.243 897.767 44.9727 897.48 45.8376L880.238 46.0538C880.525 48.8646 882.824 50.3781 887.422 50.3781ZM889.721 42.1619C889.721 39.7835 888.284 38.27 885.698 38.27C882.537 38.27 880.813 40.216 880.525 42.5944H890.008V42.1619H889.721Z" fill="white"/>
<path d="M914.722 56.8647C906.676 56.8647 900.354 61.6215 900.354 67.6756C900.354 73.7296 906.963 78.4864 914.722 78.4864C922.768 78.4864 929.091 73.7296 929.091 67.6756C929.378 61.6215 922.768 56.8647 914.722 56.8647ZM914.722 75.2431C909.262 75.2431 904.664 71.7837 904.664 67.6756C904.664 63.5675 909.262 60.108 914.722 60.108C920.182 60.108 924.78 63.5675 924.78 67.6756C925.067 71.7837 920.47 75.2431 914.722 75.2431Z" fill="white"/>
<path d="M945.758 33.5137C937.712 33.5137 931.389 38.2704 931.389 44.3245C931.389 50.3785 937.999 55.1353 945.758 55.1353C953.804 55.1353 960.126 50.3785 960.126 44.3245C960.126 38.4866 953.804 33.5137 945.758 33.5137ZM945.758 52.1083C940.298 52.1083 935.7 48.6488 935.7 44.5407C935.7 40.4326 940.298 36.9731 945.758 36.9731C951.218 36.9731 955.816 40.4326 955.816 44.5407C955.816 48.6488 951.218 52.1083 945.758 52.1083Z" fill="white"/>
<path d="M914.722 33.5137C906.676 33.5137 900.354 38.2704 900.354 44.3245C900.354 50.3785 906.963 55.1353 914.722 55.1353C922.768 55.1353 929.091 50.3785 929.091 44.3245C929.091 41.5137 927.654 38.7029 925.067 36.7569H929.091V33.5137H914.722ZM925.067 44.5407C925.067 48.6488 920.469 52.1083 915.01 52.1083C909.55 52.1083 904.952 48.6488 904.952 44.5407C904.952 40.4326 909.55 36.9731 915.01 36.9731C920.469 36.9731 925.067 40.2164 925.067 44.5407Z" fill="white"/>
</g>
<defs>
<clipPath id="clip0_0_1400">
<rect width="148.662" height="34.0594" fill="white" transform="translate(0 27.7227)"/>
</clipPath>
<clipPath id="clip1_0_1400">
<rect width="196.564" height="45.9406" fill="white" transform="translate(504.625 15.8418)"/>
</clipPath>
<clipPath id="clip2_0_1400">
<rect width="251.9" height="75.2475" fill="white" transform="translate(200.694 0.791992)"/>
</clipPath>
<clipPath id="clip3_0_1400">
<rect width="209.779" height="80" fill="white" transform="translate(753.221)"/>
</clipPath>
</defs>
</svg>
