<svg width="412" height="508" viewBox="0 0 412 508" fill="none" xmlns="http://www.w3.org/2000/svg">
<rect width="412" height="508" rx="14" fill="white" fill-opacity="0.05"/>
<rect x="37.5" y="77.5" width="159.5" height="39" rx="2.5" stroke="white" stroke-opacity="0.1"/>
<path d="M45.786 56.2V66H44.932L38.632 58.048V66H37.596V56.2H38.45L44.764 64.152V56.2H45.786ZM51.3507 58.58C52.312 58.58 53.0493 58.8227 53.5627 59.308C54.076 59.784 54.3327 60.4933 54.3327 61.436V66H53.3807V64.852C53.1567 65.2347 52.8253 65.5333 52.3867 65.748C51.9573 65.9627 51.444 66.07 50.8467 66.07C50.0253 66.07 49.372 65.874 48.8867 65.482C48.4013 65.09 48.1587 64.572 48.1587 63.928C48.1587 63.3027 48.3827 62.7987 48.8307 62.416C49.288 62.0333 50.0113 61.842 51.0007 61.842H53.3387V61.394C53.3387 60.7593 53.1613 60.2787 52.8067 59.952C52.452 59.616 51.934 59.448 51.2527 59.448C50.786 59.448 50.338 59.5273 49.9087 59.686C49.4793 59.8353 49.1107 60.0453 48.8027 60.316L48.3547 59.574C48.728 59.2567 49.176 59.014 49.6987 58.846C50.2213 58.6687 50.772 58.58 51.3507 58.58ZM51.0007 65.286C51.5607 65.286 52.0413 65.16 52.4427 64.908C52.844 64.6467 53.1427 64.2733 53.3387 63.788V62.584H51.0287C49.7687 62.584 49.1387 63.0227 49.1387 63.9C49.1387 64.3293 49.302 64.67 49.6287 64.922C49.9553 65.1647 50.4127 65.286 51.0007 65.286ZM66.2165 58.58C67.1405 58.58 67.8638 58.846 68.3865 59.378C68.9185 59.91 69.1845 60.694 69.1845 61.73V66H68.1905V61.828C68.1905 61.0627 68.0038 60.4793 67.6305 60.078C67.2665 59.6767 66.7485 59.476 66.0765 59.476C65.3112 59.476 64.7092 59.714 64.2705 60.19C63.8318 60.6567 63.6125 61.3053 63.6125 62.136V66H62.6185V61.828C62.6185 61.0627 62.4318 60.4793 62.0585 60.078C61.6945 59.6767 61.1718 59.476 60.4905 59.476C59.7345 59.476 59.1325 59.714 58.6845 60.19C58.2458 60.6567 58.0265 61.3053 58.0265 62.136V66H57.0325V58.636H57.9845V59.98C58.2458 59.532 58.6098 59.1867 59.0765 58.944C59.5432 58.7013 60.0798 58.58 60.6865 58.58C61.3025 58.58 61.8345 58.7107 62.2825 58.972C62.7398 59.2333 63.0805 59.6207 63.3045 60.134C63.5752 59.6487 63.9625 59.2707 64.4665 59C64.9798 58.72 65.5632 58.58 66.2165 58.58ZM78.3195 62.626H72.1595C72.2155 63.3913 72.5095 64.012 73.0415 64.488C73.5735 64.9547 74.2455 65.188 75.0575 65.188C75.5148 65.188 75.9348 65.1087 76.3175 64.95C76.7002 64.782 77.0315 64.5393 77.3115 64.222L77.8715 64.866C77.5448 65.258 77.1342 65.5567 76.6395 65.762C76.1542 65.9673 75.6175 66.07 75.0295 66.07C74.2735 66.07 73.6015 65.9113 73.0135 65.594C72.4348 65.2673 71.9822 64.8193 71.6555 64.25C71.3288 63.6807 71.1655 63.0367 71.1655 62.318C71.1655 61.5993 71.3195 60.9553 71.6275 60.386C71.9448 59.8167 72.3742 59.3733 72.9155 59.056C73.4662 58.7387 74.0822 58.58 74.7635 58.58C75.4448 58.58 76.0562 58.7387 76.5975 59.056C77.1388 59.3733 77.5635 59.8167 77.8715 60.386C78.1795 60.946 78.3335 61.59 78.3335 62.318L78.3195 62.626ZM74.7635 59.434C74.0542 59.434 73.4568 59.6627 72.9715 60.12C72.4955 60.568 72.2248 61.156 72.1595 61.884H77.3815C77.3162 61.156 77.0408 60.568 76.5555 60.12C76.0795 59.6627 75.4822 59.434 74.7635 59.434Z" fill="white" fill-opacity="0.6"/>
<rect x="38.6115" y="170.5" width="337.889" height="39" rx="2.5" stroke="white" stroke-opacity="0.1"/>
<path d="M40.298 159.084C39.57 159.084 38.87 158.967 38.198 158.734C37.5353 158.501 37.022 158.193 36.658 157.81L37.064 157.012C37.4187 157.367 37.89 157.656 38.478 157.88C39.066 158.095 39.6727 158.202 40.298 158.202C41.1753 158.202 41.8333 158.043 42.272 157.726C42.7107 157.399 42.93 156.979 42.93 156.466C42.93 156.074 42.8087 155.761 42.566 155.528C42.3327 155.295 42.0433 155.117 41.698 154.996C41.3527 154.865 40.872 154.725 40.256 154.576C39.5187 154.389 38.9307 154.212 38.492 154.044C38.0533 153.867 37.6753 153.601 37.358 153.246C37.05 152.891 36.896 152.411 36.896 151.804C36.896 151.309 37.0267 150.861 37.288 150.46C37.5493 150.049 37.9507 149.723 38.492 149.48C39.0333 149.237 39.7053 149.116 40.508 149.116C41.068 149.116 41.614 149.195 42.146 149.354C42.6873 149.503 43.154 149.713 43.546 149.984L43.196 150.81C42.7853 150.539 42.3467 150.339 41.88 150.208C41.4133 150.068 40.956 149.998 40.508 149.998C39.6493 149.998 39.0007 150.166 38.562 150.502C38.1327 150.829 37.918 151.253 37.918 151.776C37.918 152.168 38.0347 152.485 38.268 152.728C38.5107 152.961 38.8093 153.143 39.164 153.274C39.528 153.395 40.0133 153.531 40.62 153.68C41.3387 153.857 41.9173 154.035 42.356 154.212C42.804 154.38 43.182 154.641 43.49 154.996C43.798 155.341 43.952 155.813 43.952 156.41C43.952 156.905 43.8167 157.357 43.546 157.768C43.2847 158.169 42.8787 158.491 42.328 158.734C41.7773 158.967 41.1007 159.084 40.298 159.084ZM52.6353 151.636V159H51.6833V157.656C51.4219 158.104 51.0626 158.454 50.6053 158.706C50.1479 158.949 49.6253 159.07 49.0373 159.07C48.0759 159.07 47.3153 158.804 46.7553 158.272C46.2046 157.731 45.9293 156.942 45.9293 155.906V151.636H46.9233V155.808C46.9233 156.583 47.1146 157.171 47.4973 157.572C47.8799 157.973 48.4259 158.174 49.1353 158.174C49.9099 158.174 50.5213 157.941 50.9693 157.474C51.4173 156.998 51.6413 156.34 51.6413 155.5V151.636H52.6353ZM59.2132 151.58C59.9039 151.58 60.5292 151.739 61.0892 152.056C61.6492 152.364 62.0879 152.803 62.4052 153.372C62.7225 153.941 62.8812 154.59 62.8812 155.318C62.8812 156.046 62.7225 156.695 62.4052 157.264C62.0879 157.833 61.6492 158.277 61.0892 158.594C60.5292 158.911 59.9039 159.07 59.2132 159.07C58.5972 159.07 58.0419 158.939 57.5472 158.678C57.0619 158.417 56.6699 158.039 56.3712 157.544V159H55.4192V148.612H56.4132V153.036C56.7212 152.56 57.1132 152.201 57.5892 151.958C58.0745 151.706 58.6159 151.58 59.2132 151.58ZM59.1432 158.188C59.6565 158.188 60.1232 158.071 60.5432 157.838C60.9632 157.595 61.2899 157.255 61.5232 156.816C61.7659 156.377 61.8872 155.878 61.8872 155.318C61.8872 154.758 61.7659 154.259 61.5232 153.82C61.2899 153.381 60.9632 153.045 60.5432 152.812C60.1232 152.569 59.6565 152.448 59.1432 152.448C58.6205 152.448 58.1492 152.569 57.7292 152.812C57.3185 153.045 56.9919 153.381 56.7492 153.82C56.5159 154.259 56.3992 154.758 56.3992 155.318C56.3992 155.878 56.5159 156.377 56.7492 156.816C56.9919 157.255 57.3185 157.595 57.7292 157.838C58.1492 158.071 58.6205 158.188 59.1432 158.188ZM63.8155 161.786C63.5075 161.786 63.2182 161.744 62.9475 161.66C62.6675 161.585 62.4388 161.469 62.2615 161.31L62.6115 160.554C62.9008 160.806 63.2835 160.932 63.7595 160.932C64.1515 160.932 64.4502 160.815 64.6555 160.582C64.8702 160.349 64.9775 160.003 64.9775 159.546V151.636H65.9715V159.546C65.9715 160.237 65.7848 160.783 65.4115 161.184C65.0382 161.585 64.5062 161.786 63.8155 161.786ZM65.4815 150.012C65.2762 150.012 65.1035 149.942 64.9635 149.802C64.8235 149.662 64.7535 149.494 64.7535 149.298C64.7535 149.111 64.8235 148.948 64.9635 148.808C65.1035 148.668 65.2762 148.598 65.4815 148.598C65.6868 148.598 65.8595 148.668 65.9995 148.808C66.1395 148.939 66.2095 149.097 66.2095 149.284C66.2095 149.489 66.1395 149.662 65.9995 149.802C65.8595 149.942 65.6868 150.012 65.4815 150.012ZM75.1613 155.626H69.0013C69.0573 156.391 69.3513 157.012 69.8833 157.488C70.4153 157.955 71.0873 158.188 71.8993 158.188C72.3566 158.188 72.7766 158.109 73.1593 157.95C73.5419 157.782 73.8733 157.539 74.1533 157.222L74.7133 157.866C74.3866 158.258 73.9759 158.557 73.4813 158.762C72.9959 158.967 72.4593 159.07 71.8713 159.07C71.1153 159.07 70.4433 158.911 69.8553 158.594C69.2766 158.267 68.8239 157.819 68.4973 157.25C68.1706 156.681 68.0073 156.037 68.0073 155.318C68.0073 154.599 68.1613 153.955 68.4693 153.386C68.7866 152.817 69.2159 152.373 69.7573 152.056C70.3079 151.739 70.9239 151.58 71.6053 151.58C72.2866 151.58 72.8979 151.739 73.4393 152.056C73.9806 152.373 74.4053 152.817 74.7133 153.386C75.0213 153.946 75.1753 154.59 75.1753 155.318L75.1613 155.626ZM71.6053 152.434C70.8959 152.434 70.2986 152.663 69.8133 153.12C69.3373 153.568 69.0666 154.156 69.0013 154.884H74.2233C74.1579 154.156 73.8826 153.568 73.3973 153.12C72.9213 152.663 72.3239 152.434 71.6053 152.434ZM80.2505 159.07C79.5225 159.07 78.8692 158.911 78.2905 158.594C77.7212 158.277 77.2732 157.833 76.9465 157.264C76.6198 156.685 76.4565 156.037 76.4565 155.318C76.4565 154.599 76.6198 153.955 76.9465 153.386C77.2732 152.817 77.7212 152.373 78.2905 152.056C78.8692 151.739 79.5225 151.58 80.2505 151.58C80.8852 151.58 81.4498 151.706 81.9445 151.958C82.4485 152.201 82.8452 152.56 83.1345 153.036L82.3925 153.54C82.1498 153.176 81.8418 152.905 81.4685 152.728C81.0952 152.541 80.6892 152.448 80.2505 152.448C79.7185 152.448 79.2378 152.569 78.8085 152.812C78.3885 153.045 78.0572 153.381 77.8145 153.82C77.5812 154.259 77.4645 154.758 77.4645 155.318C77.4645 155.887 77.5812 156.391 77.8145 156.83C78.0572 157.259 78.3885 157.595 78.8085 157.838C79.2378 158.071 79.7185 158.188 80.2505 158.188C80.6892 158.188 81.0952 158.099 81.4685 157.922C81.8418 157.745 82.1498 157.474 82.3925 157.11L83.1345 157.614C82.8452 158.09 82.4485 158.454 81.9445 158.706C81.4405 158.949 80.8758 159.07 80.2505 159.07ZM89.0472 158.552C88.8605 158.72 88.6272 158.851 88.3472 158.944C88.0765 159.028 87.7919 159.07 87.4932 159.07C86.8025 159.07 86.2705 158.883 85.8972 158.51C85.5239 158.137 85.3372 157.609 85.3372 156.928V152.476H84.0212V151.636H85.3372V150.026H86.3312V151.636H88.5712V152.476H86.3312V156.872C86.3312 157.311 86.4385 157.647 86.6532 157.88C86.8772 158.104 87.1945 158.216 87.6052 158.216C87.8105 158.216 88.0065 158.183 88.1932 158.118C88.3892 158.053 88.5572 157.959 88.6972 157.838L89.0472 158.552Z" fill="white" fill-opacity="0.6"/>
<rect x="37.5" y="263.5" width="340" height="129" rx="2.5" stroke="white" stroke-opacity="0.1"/>
<path d="M47.774 242.2V252H46.78V244.16L42.93 250.754H42.44L38.59 244.202V252H37.596V242.2H38.45L42.706 249.466L46.92 242.2H47.774ZM57.1691 248.626H51.0091C51.0651 249.391 51.3591 250.012 51.8911 250.488C52.4231 250.955 53.0951 251.188 53.9071 251.188C54.3644 251.188 54.7844 251.109 55.1671 250.95C55.5498 250.782 55.8811 250.539 56.1611 250.222L56.7211 250.866C56.3944 251.258 55.9838 251.557 55.4891 251.762C55.0038 251.967 54.4671 252.07 53.8791 252.07C53.1231 252.07 52.4511 251.911 51.8631 251.594C51.2844 251.267 50.8318 250.819 50.5051 250.25C50.1784 249.681 50.0151 249.037 50.0151 248.318C50.0151 247.599 50.1691 246.955 50.4771 246.386C50.7944 245.817 51.2238 245.373 51.7651 245.056C52.3158 244.739 52.9318 244.58 53.6131 244.58C54.2944 244.58 54.9058 244.739 55.4471 245.056C55.9884 245.373 56.4131 245.817 56.7211 246.386C57.0291 246.946 57.1831 247.59 57.1831 248.318L57.1691 248.626ZM53.6131 245.434C52.9038 245.434 52.3064 245.663 51.8211 246.12C51.3451 246.568 51.0744 247.156 51.0091 247.884H56.2311C56.1658 247.156 55.8904 246.568 55.4051 246.12C54.9291 245.663 54.3318 245.434 53.6131 245.434ZM61.1803 252.07C60.583 252.07 60.009 251.986 59.4583 251.818C58.917 251.641 58.4923 251.421 58.1843 251.16L58.6323 250.376C58.9403 250.619 59.3276 250.819 59.7943 250.978C60.261 251.127 60.7463 251.202 61.2503 251.202C61.9223 251.202 62.417 251.099 62.7343 250.894C63.061 250.679 63.2243 250.381 63.2243 249.998C63.2243 249.727 63.1356 249.517 62.9583 249.368C62.781 249.209 62.557 249.093 62.2863 249.018C62.0156 248.934 61.6563 248.855 61.2083 248.78C60.611 248.668 60.1303 248.556 59.7663 248.444C59.4023 248.323 59.0896 248.122 58.8283 247.842C58.5763 247.562 58.4503 247.175 58.4503 246.68C58.4503 246.064 58.707 245.56 59.2203 245.168C59.7336 244.776 60.4476 244.58 61.3623 244.58C61.8383 244.58 62.3143 244.645 62.7903 244.776C63.2663 244.897 63.6583 245.061 63.9663 245.266L63.5323 246.064C62.9256 245.644 62.2023 245.434 61.3623 245.434C60.7276 245.434 60.247 245.546 59.9203 245.77C59.603 245.994 59.4443 246.288 59.4443 246.652C59.4443 246.932 59.533 247.156 59.7103 247.324C59.897 247.492 60.1256 247.618 60.3963 247.702C60.667 247.777 61.0403 247.856 61.5163 247.94C62.1043 248.052 62.5756 248.164 62.9303 248.276C63.285 248.388 63.5883 248.579 63.8403 248.85C64.0923 249.121 64.2183 249.494 64.2183 249.97C64.2183 250.614 63.9476 251.127 63.4063 251.51C62.8743 251.883 62.1323 252.07 61.1803 252.07ZM68.0299 252.07C67.4326 252.07 66.8586 251.986 66.3079 251.818C65.7666 251.641 65.3419 251.421 65.0339 251.16L65.4819 250.376C65.7899 250.619 66.1773 250.819 66.6439 250.978C67.1106 251.127 67.5959 251.202 68.0999 251.202C68.7719 251.202 69.2666 251.099 69.5839 250.894C69.9106 250.679 70.0739 250.381 70.0739 249.998C70.0739 249.727 69.9853 249.517 69.8079 249.368C69.6306 249.209 69.4066 249.093 69.1359 249.018C68.8653 248.934 68.5059 248.855 68.0579 248.78C67.4606 248.668 66.9799 248.556 66.6159 248.444C66.2519 248.323 65.9393 248.122 65.6779 247.842C65.4259 247.562 65.2999 247.175 65.2999 246.68C65.2999 246.064 65.5566 245.56 66.0699 245.168C66.5833 244.776 67.2973 244.58 68.2119 244.58C68.6879 244.58 69.1639 244.645 69.6399 244.776C70.1159 244.897 70.5079 245.061 70.8159 245.266L70.3819 246.064C69.7753 245.644 69.0519 245.434 68.2119 245.434C67.5773 245.434 67.0966 245.546 66.7699 245.77C66.4526 245.994 66.2939 246.288 66.2939 246.652C66.2939 246.932 66.3826 247.156 66.5599 247.324C66.7466 247.492 66.9753 247.618 67.2459 247.702C67.5166 247.777 67.8899 247.856 68.3659 247.94C68.9539 248.052 69.4253 248.164 69.7799 248.276C70.1346 248.388 70.4379 248.579 70.6899 248.85C70.9419 249.121 71.0679 249.494 71.0679 249.97C71.0679 250.614 70.7973 251.127 70.2559 251.51C69.7239 251.883 68.9819 252.07 68.0299 252.07ZM75.4815 244.58C76.4429 244.58 77.1802 244.823 77.6935 245.308C78.2069 245.784 78.4635 246.493 78.4635 247.436V252H77.5115V250.852C77.2875 251.235 76.9562 251.533 76.5175 251.748C76.0882 251.963 75.5749 252.07 74.9775 252.07C74.1562 252.07 73.5029 251.874 73.0175 251.482C72.5322 251.09 72.2895 250.572 72.2895 249.928C72.2895 249.303 72.5135 248.799 72.9615 248.416C73.4189 248.033 74.1422 247.842 75.1315 247.842H77.4695V247.394C77.4695 246.759 77.2922 246.279 76.9375 245.952C76.5829 245.616 76.0649 245.448 75.3835 245.448C74.9169 245.448 74.4689 245.527 74.0395 245.686C73.6102 245.835 73.2415 246.045 72.9335 246.316L72.4855 245.574C72.8589 245.257 73.3069 245.014 73.8295 244.846C74.3522 244.669 74.9029 244.58 75.4815 244.58ZM75.1315 251.286C75.6915 251.286 76.1722 251.16 76.5735 250.908C76.9749 250.647 77.2735 250.273 77.4695 249.788V248.584H75.1595C73.8995 248.584 73.2695 249.023 73.2695 249.9C73.2695 250.329 73.4329 250.67 73.7595 250.922C74.0862 251.165 74.5435 251.286 75.1315 251.286ZM88.0087 244.636V251.104C88.0087 252.355 87.7007 253.279 87.0847 253.876C86.478 254.483 85.5587 254.786 84.3267 254.786C83.6454 254.786 82.9967 254.683 82.3807 254.478C81.774 254.282 81.2794 254.007 80.8967 253.652L81.4007 252.896C81.7554 253.213 82.1847 253.461 82.6887 253.638C83.202 253.815 83.7387 253.904 84.2987 253.904C85.232 253.904 85.918 253.685 86.3567 253.246C86.7954 252.817 87.0147 252.145 87.0147 251.23V250.292C86.7067 250.759 86.3007 251.113 85.7967 251.356C85.302 251.599 84.7514 251.72 84.1447 251.72C83.454 251.72 82.824 251.571 82.2547 251.272C81.6947 250.964 81.2514 250.539 80.9247 249.998C80.6074 249.447 80.4487 248.827 80.4487 248.136C80.4487 247.445 80.6074 246.829 80.9247 246.288C81.2514 245.747 81.6947 245.327 82.2547 245.028C82.8147 244.729 83.4447 244.58 84.1447 244.58C84.77 244.58 85.3347 244.706 85.8387 244.958C86.3427 245.21 86.7487 245.574 87.0567 246.05V244.636H88.0087ZM84.2427 250.838C84.7747 250.838 85.2554 250.726 85.6847 250.502C86.114 250.269 86.4454 249.947 86.6787 249.536C86.9214 249.125 87.0427 248.659 87.0427 248.136C87.0427 247.613 86.9214 247.151 86.6787 246.75C86.4454 246.339 86.114 246.022 85.6847 245.798C85.2647 245.565 84.784 245.448 84.2427 245.448C83.7107 245.448 83.23 245.56 82.8007 245.784C82.3807 246.008 82.0494 246.325 81.8067 246.736C81.5734 247.147 81.4567 247.613 81.4567 248.136C81.4567 248.659 81.5734 249.125 81.8067 249.536C82.0494 249.947 82.3807 250.269 82.8007 250.502C83.23 250.726 83.7107 250.838 84.2427 250.838ZM97.2003 248.626H91.0403C91.0963 249.391 91.3903 250.012 91.9223 250.488C92.4543 250.955 93.1263 251.188 93.9383 251.188C94.3957 251.188 94.8157 251.109 95.1983 250.95C95.581 250.782 95.9123 250.539 96.1923 250.222L96.7523 250.866C96.4257 251.258 96.015 251.557 95.5203 251.762C95.035 251.967 94.4983 252.07 93.9103 252.07C93.1543 252.07 92.4823 251.911 91.8943 251.594C91.3157 251.267 90.863 250.819 90.5363 250.25C90.2097 249.681 90.0463 249.037 90.0463 248.318C90.0463 247.599 90.2003 246.955 90.5083 246.386C90.8257 245.817 91.255 245.373 91.7963 245.056C92.347 244.739 92.963 244.58 93.6443 244.58C94.3257 244.58 94.937 244.739 95.4783 245.056C96.0197 245.373 96.4443 245.817 96.7523 246.386C97.0603 246.946 97.2143 247.59 97.2143 248.318L97.2003 248.626ZM93.6443 245.434C92.935 245.434 92.3377 245.663 91.8523 246.12C91.3763 246.568 91.1057 247.156 91.0403 247.884H96.2623C96.197 247.156 95.9217 246.568 95.4363 246.12C94.9603 245.663 94.363 245.434 93.6443 245.434Z" fill="white" fill-opacity="0.6"/>
<rect x="216.5" y="77.5" width="159.5" height="39" rx="2.5" stroke="white" stroke-opacity="0.1"/>
<path d="M223.526 65.104V66H216.596V56.2H223.316V57.096H217.632V60.582H222.7V61.464H217.632V65.104H223.526ZM234.935 58.58C235.859 58.58 236.583 58.846 237.105 59.378C237.637 59.91 237.903 60.694 237.903 61.73V66H236.909V61.828C236.909 61.0627 236.723 60.4793 236.349 60.078C235.985 59.6767 235.467 59.476 234.795 59.476C234.03 59.476 233.428 59.714 232.989 60.19C232.551 60.6567 232.331 61.3053 232.331 62.136V66H231.337V61.828C231.337 61.0627 231.151 60.4793 230.777 60.078C230.413 59.6767 229.891 59.476 229.209 59.476C228.453 59.476 227.851 59.714 227.403 60.19C226.965 60.6567 226.745 61.3053 226.745 62.136V66H225.751V58.636H226.703V59.98C226.965 59.532 227.329 59.1867 227.795 58.944C228.262 58.7013 228.799 58.58 229.405 58.58C230.021 58.58 230.553 58.7107 231.001 58.972C231.459 59.2333 231.799 59.6207 232.023 60.134C232.294 59.6487 232.681 59.2707 233.185 59C233.699 58.72 234.282 58.58 234.935 58.58ZM243.175 58.58C244.136 58.58 244.874 58.8227 245.387 59.308C245.9 59.784 246.157 60.4933 246.157 61.436V66H245.205V64.852C244.981 65.2347 244.65 65.5333 244.211 65.748C243.782 65.9627 243.268 66.07 242.671 66.07C241.85 66.07 241.196 65.874 240.711 65.482C240.226 65.09 239.983 64.572 239.983 63.928C239.983 63.3027 240.207 62.7987 240.655 62.416C241.112 62.0333 241.836 61.842 242.825 61.842H245.163V61.394C245.163 60.7593 244.986 60.2787 244.631 59.952C244.276 59.616 243.758 59.448 243.077 59.448C242.61 59.448 242.162 59.5273 241.733 59.686C241.304 59.8353 240.935 60.0453 240.627 60.316L240.179 59.574C240.552 59.2567 241 59.014 241.523 58.846C242.046 58.6687 242.596 58.58 243.175 58.58ZM242.825 65.286C243.385 65.286 243.866 65.16 244.267 64.908C244.668 64.6467 244.967 64.2733 245.163 63.788V62.584H242.853C241.593 62.584 240.963 63.0227 240.963 63.9C240.963 64.3293 241.126 64.67 241.453 64.922C241.78 65.1647 242.237 65.286 242.825 65.286ZM248.857 58.636H249.851V66H248.857V58.636ZM249.361 57.026C249.155 57.026 248.983 56.956 248.843 56.816C248.703 56.676 248.633 56.508 248.633 56.312C248.633 56.1253 248.703 55.962 248.843 55.822C248.983 55.682 249.155 55.612 249.361 55.612C249.566 55.612 249.739 55.682 249.879 55.822C250.019 55.9527 250.089 56.1113 250.089 56.298C250.089 56.5033 250.019 56.676 249.879 56.816C249.739 56.956 249.566 57.026 249.361 57.026ZM252.616 55.612H253.61V66H252.616V55.612Z" fill="white" fill-opacity="0.6"/>
</svg>
