<svg width="559" height="543" viewBox="0 0 559 543" fill="none" xmlns="http://www.w3.org/2000/svg">
<rect x="78.0001" y="361" width="294" height="182" rx="10" fill="white" fill-opacity="0.1"/>
<circle cx="110" cy="391" r="6" fill="#FC165B"/>
<circle cx="129" cy="391" r="6" fill="#FCA016"/>
<circle cx="148" cy="391" r="6" fill="#16FCA9"/>
<path d="M106.896 423.752V422.232H114.76V423.752H106.896ZM120.994 423.752H114.434V422.232H120.994V423.752ZM117.842 417.928L122.378 422.992L117.842 428.056L116.594 426.992L118.442 424.968C118.703 424.691 118.932 424.459 119.13 424.272C119.327 424.08 119.551 423.907 119.802 423.752V422.232C119.551 422.077 119.327 421.907 119.13 421.72C118.932 421.528 118.703 421.293 118.442 421.016L116.594 418.992L117.842 417.928ZM138.277 426.84C138.837 426.84 139.283 426.741 139.613 426.544C139.944 426.341 140.109 426.064 140.109 425.712C140.109 425.483 140.061 425.288 139.965 425.128C139.869 424.963 139.677 424.813 139.389 424.68C139.101 424.541 138.664 424.397 138.077 424.248C137.523 424.104 137.035 423.933 136.613 423.736C136.197 423.539 135.875 423.283 135.645 422.968C135.416 422.653 135.301 422.248 135.301 421.752C135.301 421.267 135.437 420.843 135.709 420.48C135.981 420.117 136.371 419.835 136.877 419.632C137.389 419.429 137.989 419.328 138.677 419.328C139.387 419.328 140.005 419.421 140.533 419.608C141.061 419.795 141.512 420.027 141.885 420.304L141.133 421.432C140.803 421.213 140.44 421.035 140.045 420.896C139.656 420.757 139.216 420.688 138.725 420.688C138.155 420.688 137.744 420.773 137.493 420.944C137.248 421.115 137.125 421.341 137.125 421.624C137.125 421.832 137.187 422.008 137.309 422.152C137.437 422.291 137.656 422.421 137.965 422.544C138.275 422.661 138.712 422.8 139.277 422.96C139.827 423.109 140.304 423.285 140.709 423.488C141.12 423.691 141.437 423.96 141.661 424.296C141.891 424.627 142.005 425.059 142.005 425.592C142.005 426.2 141.829 426.699 141.477 427.088C141.131 427.472 140.672 427.757 140.101 427.944C139.536 428.125 138.928 428.216 138.277 428.216C137.493 428.216 136.816 428.104 136.245 427.88C135.675 427.651 135.195 427.365 134.805 427.024L135.757 425.936C136.088 426.203 136.467 426.421 136.893 426.592C137.32 426.757 137.781 426.84 138.277 426.84ZM147.871 426.84C148.431 426.84 148.876 426.741 149.207 426.544C149.538 426.341 149.703 426.064 149.703 425.712C149.703 425.483 149.655 425.288 149.559 425.128C149.463 424.963 149.271 424.813 148.983 424.68C148.695 424.541 148.258 424.397 147.671 424.248C147.116 424.104 146.628 423.933 146.207 423.736C145.791 423.539 145.468 423.283 145.239 422.968C145.01 422.653 144.895 422.248 144.895 421.752C144.895 421.267 145.031 420.843 145.303 420.48C145.575 420.117 145.964 419.835 146.471 419.632C146.983 419.429 147.583 419.328 148.271 419.328C148.98 419.328 149.599 419.421 150.127 419.608C150.655 419.795 151.106 420.027 151.479 420.304L150.727 421.432C150.396 421.213 150.034 421.035 149.639 420.896C149.25 420.757 148.81 420.688 148.319 420.688C147.748 420.688 147.338 420.773 147.087 420.944C146.842 421.115 146.719 421.341 146.719 421.624C146.719 421.832 146.78 422.008 146.903 422.152C147.031 422.291 147.25 422.421 147.559 422.544C147.868 422.661 148.306 422.8 148.871 422.96C149.42 423.109 149.898 423.285 150.303 423.488C150.714 423.691 151.031 423.96 151.255 424.296C151.484 424.627 151.599 425.059 151.599 425.592C151.599 426.2 151.423 426.699 151.071 427.088C150.724 427.472 150.266 427.757 149.695 427.944C149.13 428.125 148.522 428.216 147.871 428.216C147.087 428.216 146.41 428.104 145.839 427.88C145.268 427.651 144.788 427.365 144.399 427.024L145.351 425.936C145.682 426.203 146.06 426.421 146.487 426.592C146.914 426.757 147.375 426.84 147.871 426.84ZM156.185 415.984V420.584C156.526 420.168 156.926 419.856 157.385 419.648C157.843 419.435 158.315 419.328 158.801 419.328C159.595 419.328 160.187 419.549 160.577 419.992C160.966 420.429 161.161 421.045 161.161 421.84V428H159.369V422.12C159.369 421.613 159.273 421.251 159.081 421.032C158.889 420.808 158.579 420.696 158.153 420.696C157.886 420.696 157.63 420.757 157.385 420.88C157.145 420.997 156.921 421.152 156.713 421.344C156.51 421.536 156.334 421.741 156.185 421.96V428H154.393V416.176L156.185 415.984ZM173.66 428V426.72H174.9V420.824H173.66V419.552H176.268L176.596 421.512C176.911 420.803 177.3 420.264 177.764 419.896C178.234 419.523 178.836 419.336 179.572 419.336C179.823 419.336 180.047 419.357 180.244 419.4C180.447 419.437 180.647 419.488 180.844 419.552L180.308 421.088C180.138 421.04 179.978 421.005 179.828 420.984C179.679 420.957 179.514 420.944 179.332 420.944C178.719 420.944 178.188 421.173 177.74 421.632C177.298 422.091 176.948 422.741 176.692 423.584V426.72H178.396V428H173.66ZM179.26 422.664V420.584L179.484 419.552H180.844L180.54 422.664H179.26ZM186.558 419.328C187.385 419.328 188.081 419.512 188.646 419.88C189.211 420.248 189.638 420.763 189.926 421.424C190.219 422.085 190.366 422.864 190.366 423.76C190.366 424.651 190.217 425.432 189.918 426.104C189.625 426.771 189.193 427.291 188.622 427.664C188.057 428.032 187.366 428.216 186.55 428.216C185.734 428.216 185.041 428.037 184.47 427.68C183.905 427.317 183.473 426.803 183.174 426.136C182.881 425.469 182.734 424.683 182.734 423.776C182.734 422.896 182.881 422.123 183.174 421.456C183.473 420.789 183.907 420.269 184.478 419.896C185.049 419.517 185.742 419.328 186.558 419.328ZM186.558 420.72C185.913 420.72 185.427 420.968 185.102 421.464C184.777 421.955 184.614 422.725 184.614 423.776C184.614 424.821 184.774 425.592 185.094 426.088C185.419 426.584 185.905 426.832 186.55 426.832C187.195 426.832 187.678 426.584 187.998 426.088C188.323 425.592 188.486 424.816 188.486 423.76C188.486 422.72 188.326 421.955 188.006 421.464C187.686 420.968 187.203 420.72 186.558 420.72ZM196.152 419.328C196.978 419.328 197.674 419.512 198.24 419.88C198.805 420.248 199.232 420.763 199.52 421.424C199.813 422.085 199.96 422.864 199.96 423.76C199.96 424.651 199.81 425.432 199.512 426.104C199.218 426.771 198.786 427.291 198.216 427.664C197.65 428.032 196.96 428.216 196.144 428.216C195.328 428.216 194.634 428.037 194.064 427.68C193.498 427.317 193.066 426.803 192.768 426.136C192.474 425.469 192.328 424.683 192.328 423.776C192.328 422.896 192.474 422.123 192.768 421.456C193.066 420.789 193.501 420.269 194.072 419.896C194.642 419.517 195.336 419.328 196.152 419.328ZM196.152 420.72C195.506 420.72 195.021 420.968 194.696 421.464C194.37 421.955 194.208 422.725 194.208 423.776C194.208 424.821 194.368 425.592 194.688 426.088C195.013 426.584 195.498 426.832 196.144 426.832C196.789 426.832 197.272 426.584 197.592 426.088C197.917 425.592 198.08 424.816 198.08 423.76C198.08 422.72 197.92 421.955 197.6 421.464C197.28 420.968 196.797 420.72 196.152 420.72ZM209.418 427.552C209.108 427.749 208.738 427.909 208.306 428.032C207.874 428.155 207.423 428.216 206.954 428.216C205.972 428.216 205.226 427.963 204.714 427.456C204.207 426.944 203.954 426.272 203.954 425.44V420.856H202.074V419.552H203.954V417.664L205.746 417.448V419.552H208.594L208.394 420.856H205.746V425.424C205.746 425.877 205.858 426.216 206.082 426.44C206.311 426.659 206.684 426.768 207.202 426.768C207.511 426.768 207.796 426.731 208.058 426.656C208.319 426.581 208.556 426.485 208.77 426.368L209.418 427.552ZM215.091 416.736C215.891 416.736 216.574 416.853 217.139 417.088C217.705 417.317 218.171 417.64 218.539 418.056C218.913 418.467 219.203 418.952 219.411 419.512C219.619 420.072 219.766 420.68 219.851 421.336C219.937 421.992 219.979 422.672 219.979 423.376C219.979 424.72 219.915 425.845 219.787 426.752C219.659 427.653 219.419 428.331 219.067 428.784C218.721 429.243 218.219 429.472 217.563 429.472C217.243 429.472 216.963 429.4 216.723 429.256C216.489 429.112 216.294 428.925 216.139 428.696C215.99 428.472 215.875 428.229 215.795 427.968C215.721 427.701 215.678 427.451 215.667 427.216H215.603C215.497 427.472 215.35 427.717 215.163 427.952C214.977 428.187 214.739 428.379 214.451 428.528C214.163 428.677 213.811 428.752 213.395 428.752C212.798 428.752 212.318 428.592 211.955 428.272C211.593 427.957 211.329 427.523 211.163 426.968C210.998 426.413 210.915 425.787 210.915 425.088C210.915 423.728 211.193 422.691 211.747 421.976C212.302 421.256 213.105 420.896 214.155 420.896C214.55 420.896 214.939 420.944 215.323 421.04C215.713 421.131 216.131 421.296 216.579 421.536V426.288C216.579 426.795 216.619 427.187 216.699 427.464C216.779 427.741 216.889 427.933 217.027 428.04C217.171 428.147 217.334 428.2 217.515 428.2C217.729 428.2 217.894 428.091 218.011 427.872C218.134 427.653 218.222 427.339 218.275 426.928C218.329 426.512 218.361 426.011 218.371 425.424C218.382 424.837 218.387 424.176 218.387 423.44C218.387 422.651 218.342 421.928 218.251 421.272C218.166 420.611 218.003 420.04 217.763 419.56C217.529 419.08 217.193 418.709 216.755 418.448C216.318 418.187 215.75 418.056 215.051 418.056C214.513 418.056 213.945 418.157 213.347 418.36C212.755 418.563 212.131 418.952 211.475 419.528L210.611 418.528C211.337 417.899 212.07 417.443 212.811 417.16C213.558 416.877 214.318 416.736 215.091 416.736ZM214.179 422.112C213.566 422.112 213.147 422.352 212.923 422.832C212.699 423.307 212.587 424.059 212.587 425.088C212.587 425.6 212.619 426.037 212.683 426.4C212.747 426.763 212.859 427.04 213.019 427.232C213.179 427.424 213.395 427.52 213.667 427.52C213.993 427.52 214.246 427.445 214.427 427.296C214.609 427.147 214.745 426.971 214.835 426.768C214.926 426.56 214.995 426.379 215.043 426.224V422.32C214.899 422.245 214.761 422.192 214.627 422.16C214.494 422.128 214.345 422.112 214.179 422.112ZM226.397 416.96V427.68H224.621V418.8L222.189 420.296L221.421 419.04L224.813 416.96H226.397ZM228.605 426.592V428H221.925V426.592H228.605ZM234.071 416.736C234.823 416.736 235.457 416.877 235.975 417.16C236.497 417.437 236.895 417.811 237.167 418.28C237.444 418.749 237.583 419.275 237.583 419.856C237.583 420.336 237.497 420.808 237.327 421.272C237.161 421.736 236.892 422.224 236.519 422.736C236.151 423.243 235.663 423.808 235.055 424.432C234.447 425.051 233.703 425.76 232.823 426.56H237.839L237.631 428H230.767V426.64C231.561 425.883 232.241 425.216 232.807 424.64C233.372 424.059 233.844 423.549 234.223 423.112C234.601 422.669 234.9 422.272 235.119 421.92C235.337 421.563 235.492 421.229 235.583 420.92C235.679 420.605 235.727 420.288 235.727 419.968C235.727 419.413 235.569 418.976 235.255 418.656C234.94 418.336 234.503 418.176 233.943 418.176C233.441 418.176 233.025 418.267 232.695 418.448C232.364 418.629 232.036 418.923 231.711 419.328L230.543 418.44C230.975 417.891 231.471 417.469 232.031 417.176C232.591 416.883 233.271 416.736 234.071 416.736ZM243.633 416.736C244.363 416.736 244.993 416.864 245.521 417.12C246.049 417.376 246.454 417.715 246.737 418.136C247.019 418.557 247.161 419.021 247.161 419.528C247.161 419.981 247.065 420.387 246.873 420.744C246.681 421.101 246.419 421.397 246.089 421.632C245.758 421.867 245.385 422.032 244.969 422.128C245.433 422.176 245.857 422.304 246.241 422.512C246.625 422.72 246.931 423.016 247.161 423.4C247.395 423.784 247.513 424.267 247.513 424.848C247.513 425.477 247.347 426.048 247.017 426.56C246.691 427.067 246.227 427.469 245.625 427.768C245.027 428.067 244.323 428.216 243.513 428.216C242.819 428.216 242.158 428.088 241.529 427.832C240.905 427.576 240.374 427.189 239.937 426.672L241.033 425.712C241.347 426.08 241.715 426.352 242.137 426.528C242.558 426.704 242.99 426.792 243.433 426.792C244.115 426.792 244.657 426.616 245.057 426.264C245.457 425.907 245.657 425.413 245.657 424.784C245.657 424.304 245.566 423.925 245.385 423.648C245.209 423.365 244.961 423.163 244.641 423.04C244.321 422.917 243.95 422.856 243.529 422.856H242.577L242.785 421.536H243.457C243.803 421.536 244.123 421.475 244.417 421.352C244.71 421.224 244.945 421.029 245.121 420.768C245.302 420.507 245.393 420.181 245.393 419.792C245.393 419.253 245.209 418.84 244.841 418.552C244.478 418.264 244.027 418.12 243.489 418.12C243.03 418.12 242.619 418.205 242.257 418.376C241.899 418.541 241.547 418.787 241.201 419.112L240.249 418.096C240.734 417.632 241.259 417.291 241.825 417.072C242.39 416.848 242.993 416.736 243.633 416.736ZM252.154 426.664C252.154 426.376 252.221 426.117 252.354 425.888C252.493 425.653 252.68 425.467 252.914 425.328C253.149 425.189 253.41 425.12 253.698 425.12C253.992 425.12 254.256 425.189 254.49 425.328C254.725 425.467 254.909 425.653 255.042 425.888C255.181 426.117 255.25 426.376 255.25 426.664C255.25 426.947 255.181 427.208 255.042 427.448C254.909 427.683 254.725 427.869 254.49 428.008C254.256 428.147 253.992 428.216 253.698 428.216C253.41 428.216 253.149 428.147 252.914 428.008C252.68 427.869 252.493 427.683 252.354 427.448C252.221 427.208 252.154 426.947 252.154 426.664ZM262.66 416.736L264.172 417.336L261.356 424.064H267.108V425.456H259.484V424.208L262.66 416.736ZM265.796 421.112V428H264.076L264.06 424.32L264.292 421.112H265.796ZM276.054 416.96L275.822 418.304H271.582V421.376C271.896 421.211 272.2 421.099 272.494 421.04C272.792 420.976 273.091 420.944 273.39 420.944C273.976 420.944 274.499 421.083 274.958 421.36C275.416 421.637 275.776 422.037 276.038 422.56C276.304 423.083 276.438 423.715 276.438 424.456C276.438 425.192 276.272 425.845 275.942 426.416C275.616 426.981 275.158 427.424 274.566 427.744C273.974 428.059 273.278 428.216 272.478 428.216C271.758 428.216 271.118 428.088 270.558 427.832C270.003 427.571 269.515 427.216 269.094 426.768L270.166 425.76C270.475 426.101 270.814 426.36 271.182 426.536C271.555 426.707 271.963 426.792 272.406 426.792C273.078 426.792 273.606 426.589 273.99 426.184C274.379 425.773 274.574 425.195 274.574 424.448C274.574 423.904 274.494 423.475 274.334 423.16C274.179 422.84 273.966 422.611 273.694 422.472C273.422 422.333 273.115 422.264 272.774 422.264C272.496 422.264 272.235 422.293 271.99 422.352C271.75 422.411 271.483 422.504 271.19 422.632H269.87V416.96H276.054ZM283.144 416.736C283.597 416.736 284.01 416.797 284.384 416.92C284.762 417.037 285.106 417.2 285.416 417.408L284.72 418.56C284.485 418.405 284.234 418.291 283.968 418.216C283.701 418.136 283.429 418.096 283.152 418.096C282.624 418.096 282.168 418.269 281.784 418.616C281.405 418.963 281.114 419.456 280.912 420.096C280.709 420.736 280.608 421.499 280.608 422.384L280.624 423C280.624 424.317 280.773 425.291 281.072 425.92C281.376 426.544 281.893 426.856 282.624 426.856C283.237 426.856 283.693 426.627 283.992 426.168C284.296 425.704 284.448 425.099 284.448 424.352C284.448 423.781 284.378 423.331 284.24 423C284.101 422.669 283.906 422.432 283.656 422.288C283.405 422.144 283.109 422.072 282.768 422.072C282.282 422.072 281.842 422.213 281.448 422.496C281.053 422.779 280.728 423.152 280.472 423.616L280.44 422.272C280.797 421.728 281.205 421.336 281.664 421.096C282.122 420.851 282.616 420.728 283.144 420.728C283.714 420.728 284.234 420.861 284.704 421.128C285.178 421.389 285.557 421.784 285.84 422.312C286.122 422.835 286.264 423.488 286.264 424.272C286.264 425.056 286.104 425.744 285.784 426.336C285.469 426.928 285.037 427.389 284.488 427.72C283.938 428.051 283.314 428.216 282.616 428.216C281.922 428.216 281.33 428.085 280.84 427.824C280.354 427.563 279.96 427.192 279.656 426.712C279.352 426.232 279.128 425.667 278.984 425.016C278.845 424.36 278.776 423.643 278.776 422.864C278.776 421.632 278.949 420.557 279.296 419.64C279.648 418.723 280.149 418.011 280.8 417.504C281.45 416.992 282.232 416.736 283.144 416.736ZM290.529 426.664C290.529 426.376 290.596 426.117 290.729 425.888C290.868 425.653 291.055 425.467 291.289 425.328C291.524 425.189 291.785 425.12 292.073 425.12C292.367 425.12 292.631 425.189 292.865 425.328C293.1 425.467 293.284 425.653 293.417 425.888C293.556 426.117 293.625 426.376 293.625 426.664C293.625 426.947 293.556 427.208 293.417 427.448C293.284 427.683 293.1 427.869 292.865 428.008C292.631 428.147 292.367 428.216 292.073 428.216C291.785 428.216 291.524 428.147 291.289 428.008C291.055 427.869 290.868 427.683 290.729 427.448C290.596 427.208 290.529 426.947 290.529 426.664ZM300.763 428.192L299.075 427.672L303.307 418.368H298.251V416.96H305.123V418.248L300.763 428.192ZM314.717 419.592C314.717 420.12 314.562 420.579 314.253 420.968C313.943 421.352 313.485 421.712 312.877 422.048C313.607 422.368 314.17 422.781 314.565 423.288C314.959 423.789 315.157 424.368 315.157 425.024C315.157 425.616 315.002 426.155 314.693 426.64C314.383 427.12 313.935 427.504 313.349 427.792C312.767 428.075 312.061 428.216 311.229 428.216C310.402 428.216 309.701 428.075 309.125 427.792C308.549 427.509 308.114 427.131 307.821 426.656C307.527 426.176 307.381 425.645 307.381 425.064C307.381 424.403 307.575 423.84 307.965 423.376C308.354 422.907 308.874 422.525 309.525 422.232C308.949 421.923 308.519 421.576 308.237 421.192C307.959 420.803 307.821 420.301 307.821 419.688C307.821 419.192 307.919 418.763 308.117 418.4C308.314 418.032 308.578 417.725 308.909 417.48C309.239 417.229 309.61 417.043 310.021 416.92C310.431 416.797 310.85 416.736 311.277 416.736C311.73 416.736 312.162 416.797 312.573 416.92C312.983 417.037 313.349 417.216 313.669 417.456C313.994 417.691 314.25 417.987 314.437 418.344C314.623 418.701 314.717 419.117 314.717 419.592ZM313.325 425.032C313.325 424.584 313.218 424.227 313.005 423.96C312.797 423.693 312.495 423.469 312.101 423.288C311.706 423.107 311.234 422.92 310.685 422.728C310.418 422.867 310.173 423.04 309.949 423.248C309.725 423.451 309.546 423.696 309.413 423.984C309.279 424.272 309.213 424.613 309.213 425.008C309.213 425.573 309.383 426.024 309.725 426.36C310.066 426.691 310.575 426.856 311.253 426.856C311.935 426.856 312.45 426.68 312.797 426.328C313.149 425.976 313.325 425.544 313.325 425.032ZM309.557 419.696C309.557 420.059 309.639 420.352 309.805 420.576C309.97 420.8 310.21 420.989 310.525 421.144C310.839 421.293 311.221 421.445 311.669 421.6C312.122 421.317 312.453 421.035 312.661 420.752C312.874 420.464 312.981 420.107 312.981 419.68C312.981 419.184 312.834 418.787 312.541 418.488C312.247 418.189 311.826 418.04 311.277 418.04C310.733 418.04 310.309 418.184 310.005 418.472C309.706 418.76 309.557 419.168 309.557 419.696ZM319.311 426.664C319.311 426.376 319.377 426.117 319.511 425.888C319.649 425.653 319.836 425.467 320.071 425.328C320.305 425.189 320.567 425.12 320.855 425.12C321.148 425.12 321.412 425.189 321.647 425.328C321.881 425.467 322.065 425.653 322.199 425.888C322.337 426.117 322.407 426.376 322.407 426.664C322.407 426.947 322.337 427.208 322.199 427.448C322.065 427.683 321.881 427.869 321.647 428.008C321.412 428.147 321.148 428.216 320.855 428.216C320.567 428.216 320.305 428.147 320.071 428.008C319.836 427.869 319.649 427.683 319.511 427.448C319.377 427.208 319.311 426.947 319.311 426.664ZM330.328 416.752C331.166 416.752 331.864 416.936 332.424 417.304C332.984 417.672 333.403 418.192 333.68 418.864C333.963 419.531 334.104 420.317 334.104 421.224C334.104 422.317 333.982 423.259 333.736 424.048C333.496 424.832 333.123 425.499 332.616 426.048C332.115 426.597 331.472 427.059 330.688 427.432C329.91 427.805 328.979 428.125 327.896 428.392L327.504 427.08C328.512 426.808 329.355 426.483 330.032 426.104C330.71 425.72 331.23 425.243 331.592 424.672C331.96 424.096 332.174 423.395 332.232 422.568L332.248 421.768C332.254 420.899 332.195 420.195 332.072 419.656C331.95 419.117 331.747 418.725 331.464 418.48C331.182 418.235 330.8 418.112 330.32 418.112C329.707 418.112 329.235 418.312 328.904 418.712C328.574 419.112 328.408 419.712 328.408 420.512C328.408 421.291 328.568 421.851 328.888 422.192C329.214 422.533 329.643 422.704 330.176 422.704C330.656 422.704 331.078 422.579 331.44 422.328C331.803 422.072 332.152 421.723 332.488 421.28L332.472 422.552C332.12 422.995 331.723 423.355 331.28 423.632C330.843 423.904 330.326 424.04 329.728 424.04C329.126 424.04 328.587 423.899 328.112 423.616C327.638 423.328 327.264 422.92 326.992 422.392C326.72 421.859 326.584 421.232 326.584 420.512C326.584 419.717 326.75 419.04 327.08 418.48C327.416 417.92 327.867 417.493 328.432 417.2C328.998 416.901 329.63 416.752 330.328 416.752ZM340.05 416.736C341.287 416.736 342.223 417.235 342.858 418.232C343.493 419.229 343.81 420.64 343.81 422.464C343.81 424.293 343.493 425.709 342.858 426.712C342.223 427.715 341.287 428.216 340.05 428.216C338.807 428.216 337.869 427.715 337.234 426.712C336.605 425.709 336.29 424.293 336.29 422.464C336.29 420.64 336.605 419.229 337.234 418.232C337.869 417.235 338.807 416.736 340.05 416.736ZM340.05 418.104C339.415 418.104 338.927 418.443 338.586 419.12C338.245 419.792 338.074 420.907 338.074 422.464C338.074 423.296 338.109 423.995 338.178 424.56C338.253 425.12 338.367 425.568 338.522 425.904C338.682 426.24 338.887 426.483 339.138 426.632C339.389 426.776 339.693 426.848 340.05 426.848C340.477 426.848 340.837 426.704 341.13 426.416C341.423 426.123 341.645 425.653 341.794 425.008C341.949 424.363 342.026 423.515 342.026 422.464C342.026 421.371 341.959 420.507 341.826 419.872C341.698 419.232 341.49 418.779 341.202 418.512C340.914 418.24 340.53 418.104 340.05 418.104ZM341.538 418.48L342.002 419.736L338.706 426.464L338.114 425.448L341.538 418.48Z" fill="white"/>
<path d="M112.385 476H109.615C107.066 476 105 478.066 105 480.615V483.385C105 485.934 107.066 488 109.615 488H112.385C114.934 488 117 485.934 117 483.385V480.615C117 478.066 114.934 476 112.385 476Z" fill="white" fill-opacity="0.05"/>
<path d="M176.328 476H128.672C126.092 476 124 478.066 124 480.615V483.385C124 485.934 126.092 488 128.672 488H176.328C178.908 488 181 485.934 181 483.385V480.615C181 478.066 178.908 476 176.328 476Z" fill="white" fill-opacity="0.05"/>
<path d="M229.306 476H192.694C190.102 476 188 478.066 188 480.615V483.385C188 485.934 190.102 488 192.694 488H229.306C231.899 488 234 485.934 234 483.385V480.615C234 478.066 231.899 476 229.306 476Z" fill="white" fill-opacity="0.05"/>
<path d="M163.368 500H109.632C107.074 500 105 502.066 105 504.615V507.385C105 509.934 107.074 512 109.632 512H163.368C165.926 512 168 509.934 168 507.385V504.615C168 502.066 165.926 500 163.368 500Z" fill="white" fill-opacity="0.05"/>
<path d="M222.357 500H179.643C177.079 500 175 502.066 175 504.615V507.385C175 509.934 177.079 512 179.643 512H222.357C224.921 512 227 509.934 227 507.385V504.615C227 502.066 224.921 500 222.357 500Z" fill="white" fill-opacity="0.05"/>
<path d="M300.395 500H239.605C237.062 500 235 502.066 235 504.615V507.385C235 509.934 237.062 512 239.605 512H300.395C302.938 512 305 509.934 305 507.385V504.615C305 502.066 302.938 500 300.395 500Z" fill="white" fill-opacity="0.05"/>
<path d="M144.417 452H109.583C107.052 452 105 454.066 105 456.615V459.385C105 461.934 107.052 464 109.583 464H144.417C146.948 464 149 461.934 149 459.385V456.615C149 454.066 146.948 452 144.417 452Z" fill="white" fill-opacity="0.05"/>
<path d="M218.417 452H161.583C159.052 452 157 454.066 157 456.615V459.385C157 461.934 159.052 464 161.583 464H218.417C220.948 464 223 461.934 223 459.385V456.615C223 454.066 220.948 452 218.417 452Z" fill="white" fill-opacity="0.05"/>
<path d="M292.352 452H235.648C233.081 452 231 454.066 231 456.615V459.385C231 461.934 233.081 464 235.648 464H292.352C294.919 464 297 461.934 297 459.385V456.615C297 454.066 294.919 452 292.352 452Z" fill="white" fill-opacity="0.05"/>
<rect x="116.265" y="12" width="1.86023" height="488.311" fill="url(#paint0_linear_0_1124)"/>
<rect x="68.8287" y="12" width="1.86023" height="488.311" fill="url(#paint1_linear_0_1124)"/>
<rect x="162.77" y="12" width="1.86023" height="488.311" fill="url(#paint2_linear_0_1124)"/>
<rect x="209.276" y="12" width="1.86023" height="488.311" fill="url(#paint3_linear_0_1124)"/>
<rect x="255.782" y="12" width="1.86023" height="488.311" fill="url(#paint4_linear_0_1124)"/>
<rect x="302.288" y="12" width="1.86023" height="488.311" fill="url(#paint5_linear_0_1124)"/>
<rect x="348.794" y="12" width="1.86023" height="488.311" fill="url(#paint6_linear_0_1124)"/>
<rect x="395.3" y="12" width="1.86023" height="488.311" fill="url(#paint7_linear_0_1124)"/>
<rect x="441.805" y="12" width="1.86023" height="488.311" fill="url(#paint8_linear_0_1124)"/>
<rect x="488.311" y="12" width="1.86023" height="488.311" fill="url(#paint9_linear_0_1124)"/>
<rect x="559" y="92.9204" width="1.86023" height="559" transform="rotate(90 559 92.9204)" fill="url(#paint10_linear_0_1124)"/>
<rect x="559" y="45.4844" width="1.86023" height="559" transform="rotate(90 559 45.4844)" fill="url(#paint11_linear_0_1124)"/>
<rect x="559" y="139.426" width="1.86023" height="559" transform="rotate(90 559 139.426)" fill="url(#paint12_linear_0_1124)"/>
<rect x="559" y="185.932" width="1.86023" height="559" transform="rotate(90 559 185.932)" fill="url(#paint13_linear_0_1124)"/>
<rect x="559" y="232.438" width="1.86023" height="559" transform="rotate(90 559 232.438)" fill="url(#paint14_linear_0_1124)"/>
<rect x="559" y="278.944" width="1.86023" height="559" transform="rotate(90 559 278.944)" fill="url(#paint15_linear_0_1124)"/>
<rect x="559" y="325.449" width="1.86023" height="559" transform="rotate(90 559 325.449)" fill="url(#paint16_linear_0_1124)"/>
<rect x="559" y="371.955" width="1.86023" height="559" transform="rotate(90 559 371.955)" fill="url(#paint17_linear_0_1124)"/>
<rect x="559" y="418.461" width="1.86023" height="559" transform="rotate(90 559 418.461)" fill="url(#paint18_linear_0_1124)"/>
<rect x="559" y="464.967" width="1.86023" height="559" transform="rotate(90 559 464.967)" fill="url(#paint19_linear_0_1124)"/>
<circle cx="273" cy="228" r="65" fill="white" fill-opacity="0.05"/>
<circle cx="273" cy="228" r="53" fill="white" fill-opacity="0.1"/>
<circle cx="273" cy="228" r="37" fill="white" fill-opacity="0.15"/>
<path d="M273 244.667C282.205 244.667 289.667 237.205 289.667 228C289.667 218.795 282.205 211.333 273 211.333C263.795 211.333 256.333 218.795 256.333 228C256.333 237.205 263.795 244.667 273 244.667Z" stroke="white" stroke-width="2" stroke-linecap="round" stroke-linejoin="round"/>
<path d="M256.333 228H289.667" stroke="white" stroke-width="2" stroke-linecap="round" stroke-linejoin="round"/>
<path d="M273 211.333C277.169 215.897 279.538 221.82 279.667 228C279.538 234.18 277.169 240.103 273 244.667C268.831 240.103 266.462 234.18 266.333 228C266.462 221.82 268.831 215.897 273 211.333V211.333Z" stroke="white" stroke-width="2" stroke-linecap="round" stroke-linejoin="round"/>
<rect x="310" width="198" height="60" rx="10" fill="white" fill-opacity="0.05"/>
<rect x="310.5" y="0.5" width="197" height="59" rx="9.5" stroke="white" stroke-opacity="0.1"/>
<rect x="310" y="80" width="198" height="60" rx="10" fill="white" fill-opacity="0.05"/>
<rect x="310.5" y="80.5" width="197" height="59" rx="9.5" stroke="white" stroke-opacity="0.1"/>
<circle r="8" transform="matrix(1 0 0 -1 338 30)" fill="#66FFA3"/>
<circle r="8" transform="matrix(1 0 0 -1 338 110)" fill="white" fill-opacity="0.4"/>
<path d="M216.5 356.5C214 356.5 212 358.5 212 361C212 363.5 214 365.5 216.5 365.5C219 365.5 221 363.5 221 361C221 358.5 219 356.5 216.5 356.5Z" fill="#6016FC"/>
<path d="M213.5 361C213.5 359.328 214.828 358 216.5 358V355C213.172 355 210.5 357.672 210.5 361H213.5ZM216.5 358C218.172 358 219.5 359.328 219.5 361H222.5C222.5 357.672 219.828 355 216.5 355V358ZM219.5 361C219.5 362.672 218.172 364 216.5 364V367C219.828 367 222.5 364.328 222.5 361H219.5ZM216.5 364C214.828 364 213.5 362.672 213.5 361H210.5C210.5 364.328 213.172 367 216.5 367V364ZM218 356.5V347H215V356.5H218ZM236.5 328.5H253V325.5H236.5V328.5ZM274.5 307V293H271.5V307H274.5ZM253 328.5C264.874 328.5 274.5 318.874 274.5 307H271.5C271.5 317.217 263.217 325.5 253 325.5V328.5ZM218 347C218 336.783 226.283 328.5 236.5 328.5V325.5C224.626 325.5 215 335.126 215 347H218Z" fill="white" fill-opacity="0.1"/>
<path d="M310 105.5C307.5 105.5 305.5 107.5 305.5 110C305.5 112.5 307.5 114.5 310 114.5C312.5 114.5 314.5 112.5 314.5 110C314.5 107.5 312.5 105.5 310 105.5Z" fill="#6016FC"/>
<path d="M307 110C307 108.328 308.329 107 310 107V104C306.672 104 304 106.672 304 110H307ZM310 107C311.672 107 313 108.328 313 110H316C316 106.672 313.329 104 310 104V107ZM313 110C313 111.672 311.672 113 310 113V116C313.329 116 316 113.328 316 110H313ZM310 113C308.329 113 307 111.672 307 110H304C304 113.328 306.672 116 310 116V113ZM305.5 108.5H293V111.5H305.5V108.5ZM271.5 130V163H274.5V130H271.5ZM293 108.5C281.126 108.5 271.5 118.126 271.5 130H274.5C274.5 119.783 282.783 111.5 293 111.5V108.5Z" fill="white" fill-opacity="0.1"/>
<defs>
<linearGradient id="paint0_linear_0_1124" x1="117.195" y1="12" x2="117.195" y2="500.311" gradientUnits="userSpaceOnUse">
<stop stop-color="white" stop-opacity="0"/>
<stop offset="0.479167" stop-color="white" stop-opacity="0.02"/>
<stop offset="0.994792" stop-color="white" stop-opacity="0"/>
</linearGradient>
<linearGradient id="paint1_linear_0_1124" x1="69.7588" y1="12" x2="69.7588" y2="500.311" gradientUnits="userSpaceOnUse">
<stop stop-color="white" stop-opacity="0"/>
<stop offset="0.479167" stop-color="white" stop-opacity="0.02"/>
<stop offset="0.994792" stop-color="white" stop-opacity="0"/>
</linearGradient>
<linearGradient id="paint2_linear_0_1124" x1="163.701" y1="12" x2="163.701" y2="500.311" gradientUnits="userSpaceOnUse">
<stop stop-color="white" stop-opacity="0"/>
<stop offset="0.479167" stop-color="white" stop-opacity="0.02"/>
<stop offset="0.994792" stop-color="white" stop-opacity="0"/>
</linearGradient>
<linearGradient id="paint3_linear_0_1124" x1="210.206" y1="12" x2="210.206" y2="500.311" gradientUnits="userSpaceOnUse">
<stop stop-color="white" stop-opacity="0"/>
<stop offset="0.479167" stop-color="white" stop-opacity="0.02"/>
<stop offset="0.994792" stop-color="white" stop-opacity="0"/>
</linearGradient>
<linearGradient id="paint4_linear_0_1124" x1="256.712" y1="12" x2="256.712" y2="500.311" gradientUnits="userSpaceOnUse">
<stop stop-color="white" stop-opacity="0"/>
<stop offset="0.479167" stop-color="white" stop-opacity="0.02"/>
<stop offset="0.994792" stop-color="white" stop-opacity="0"/>
</linearGradient>
<linearGradient id="paint5_linear_0_1124" x1="303.218" y1="12" x2="303.218" y2="500.311" gradientUnits="userSpaceOnUse">
<stop stop-color="white" stop-opacity="0"/>
<stop offset="0.479167" stop-color="white" stop-opacity="0.02"/>
<stop offset="0.994792" stop-color="white" stop-opacity="0"/>
</linearGradient>
<linearGradient id="paint6_linear_0_1124" x1="349.724" y1="12" x2="349.724" y2="500.311" gradientUnits="userSpaceOnUse">
<stop stop-color="white" stop-opacity="0"/>
<stop offset="0.479167" stop-color="white" stop-opacity="0.02"/>
<stop offset="0.994792" stop-color="white" stop-opacity="0"/>
</linearGradient>
<linearGradient id="paint7_linear_0_1124" x1="396.23" y1="12" x2="396.23" y2="500.311" gradientUnits="userSpaceOnUse">
<stop stop-color="white" stop-opacity="0"/>
<stop offset="0.479167" stop-color="white" stop-opacity="0.02"/>
<stop offset="0.994792" stop-color="white" stop-opacity="0"/>
</linearGradient>
<linearGradient id="paint8_linear_0_1124" x1="442.736" y1="12" x2="442.736" y2="500.311" gradientUnits="userSpaceOnUse">
<stop stop-color="white" stop-opacity="0"/>
<stop offset="0.479167" stop-color="white" stop-opacity="0.02"/>
<stop offset="0.994792" stop-color="white" stop-opacity="0"/>
</linearGradient>
<linearGradient id="paint9_linear_0_1124" x1="489.241" y1="12" x2="489.241" y2="500.311" gradientUnits="userSpaceOnUse">
<stop stop-color="white" stop-opacity="0"/>
<stop offset="0.479167" stop-color="white" stop-opacity="0.02"/>
<stop offset="0.994792" stop-color="white" stop-opacity="0"/>
</linearGradient>
<linearGradient id="paint10_linear_0_1124" x1="559.93" y1="92.9204" x2="559.93" y2="651.92" gradientUnits="userSpaceOnUse">
<stop stop-color="white" stop-opacity="0"/>
<stop offset="0.479167" stop-color="white" stop-opacity="0.02"/>
<stop offset="0.994792" stop-color="white" stop-opacity="0"/>
</linearGradient>
<linearGradient id="paint11_linear_0_1124" x1="559.93" y1="45.4844" x2="559.93" y2="604.484" gradientUnits="userSpaceOnUse">
<stop stop-color="white" stop-opacity="0"/>
<stop offset="0.479167" stop-color="white" stop-opacity="0.02"/>
<stop offset="0.994792" stop-color="white" stop-opacity="0"/>
</linearGradient>
<linearGradient id="paint12_linear_0_1124" x1="559.93" y1="139.426" x2="559.93" y2="698.426" gradientUnits="userSpaceOnUse">
<stop stop-color="white" stop-opacity="0"/>
<stop offset="0.479167" stop-color="white" stop-opacity="0.02"/>
<stop offset="0.994792" stop-color="white" stop-opacity="0"/>
</linearGradient>
<linearGradient id="paint13_linear_0_1124" x1="559.93" y1="185.932" x2="559.93" y2="744.932" gradientUnits="userSpaceOnUse">
<stop stop-color="white" stop-opacity="0"/>
<stop offset="0.479167" stop-color="white" stop-opacity="0.02"/>
<stop offset="0.994792" stop-color="white" stop-opacity="0"/>
</linearGradient>
<linearGradient id="paint14_linear_0_1124" x1="559.93" y1="232.438" x2="559.93" y2="791.438" gradientUnits="userSpaceOnUse">
<stop stop-color="white" stop-opacity="0"/>
<stop offset="0.479167" stop-color="white" stop-opacity="0.02"/>
<stop offset="0.994792" stop-color="white" stop-opacity="0"/>
</linearGradient>
<linearGradient id="paint15_linear_0_1124" x1="559.93" y1="278.944" x2="559.93" y2="837.944" gradientUnits="userSpaceOnUse">
<stop stop-color="white" stop-opacity="0"/>
<stop offset="0.479167" stop-color="white" stop-opacity="0.02"/>
<stop offset="0.994792" stop-color="white" stop-opacity="0"/>
</linearGradient>
<linearGradient id="paint16_linear_0_1124" x1="559.93" y1="325.449" x2="559.93" y2="884.449" gradientUnits="userSpaceOnUse">
<stop stop-color="white" stop-opacity="0"/>
<stop offset="0.479167" stop-color="white" stop-opacity="0.02"/>
<stop offset="0.994792" stop-color="white" stop-opacity="0"/>
</linearGradient>
<linearGradient id="paint17_linear_0_1124" x1="559.93" y1="371.955" x2="559.93" y2="930.955" gradientUnits="userSpaceOnUse">
<stop stop-color="white" stop-opacity="0"/>
<stop offset="0.479167" stop-color="white" stop-opacity="0.02"/>
<stop offset="0.994792" stop-color="white" stop-opacity="0"/>
</linearGradient>
<linearGradient id="paint18_linear_0_1124" x1="559.93" y1="418.461" x2="559.93" y2="977.461" gradientUnits="userSpaceOnUse">
<stop stop-color="white" stop-opacity="0"/>
<stop offset="0.479167" stop-color="white" stop-opacity="0.02"/>
<stop offset="0.994792" stop-color="white" stop-opacity="0"/>
</linearGradient>
<linearGradient id="paint19_linear_0_1124" x1="559.93" y1="464.967" x2="559.93" y2="1023.97" gradientUnits="userSpaceOnUse">
<stop stop-color="white" stop-opacity="0"/>
<stop offset="0.479167" stop-color="white" stop-opacity="0.02"/>
<stop offset="0.994792" stop-color="white" stop-opacity="0"/>
</linearGradient>
</defs>
</svg>
