<svg width="184" height="222" viewBox="0 0 184 222" fill="none" xmlns="http://www.w3.org/2000/svg">
<rect width="6.08109" height="6.06996" rx="1.34409" fill="white"/>
<rect x="24.0811" width="6.08109" height="6.06996" rx="1.34409" fill="white"/>
<rect x="48.1622" width="6.08109" height="6.06996" rx="1.34409" fill="white"/>
<rect x="72.2433" width="6.08109" height="6.06996" rx="1.34409" fill="white"/>
<rect x="96.3244" width="6.08109" height="6.06996" rx="1.34409" fill="white"/>
<rect x="120.406" width="6.08109" height="6.06996" rx="1.34409" fill="white"/>
<rect x="144.487" width="6.08109" height="6.06996" rx="1.34409" fill="white"/>
<rect x="168.568" width="6.08109" height="6.06996" rx="1.34409" fill="white"/>
<rect y="24.2798" width="6.08109" height="6.06996" rx="1.34409" fill="white"/>
<rect x="24.0811" y="24.2798" width="6.08109" height="6.06996" rx="1.34409" fill="white"/>
<rect x="48.1622" y="24.2798" width="6.08109" height="6.06996" rx="1.34409" fill="white"/>
<rect x="72.2433" y="24.2798" width="6.08109" height="6.06996" rx="1.34409" fill="white"/>
<rect x="96.3244" y="24.2798" width="6.08109" height="6.06996" rx="1.34409" fill="white"/>
<rect x="120.406" y="24.2798" width="6.08109" height="6.06996" rx="1.34409" fill="white"/>
<rect x="144.487" y="24.2798" width="6.08109" height="6.06996" rx="1.34409" fill="white"/>
<rect x="168.568" y="24.2798" width="6.08109" height="6.06996" rx="1.34409" fill="white"/>
<rect y="48.5596" width="6.08109" height="6.06996" rx="1.34409" fill="white"/>
<rect x="24.0811" y="48.5596" width="6.08109" height="6.06996" rx="1.34409" fill="white"/>
<rect x="48.1622" y="48.5596" width="6.08109" height="6.06996" rx="1.34409" fill="white"/>
<rect x="72.2433" y="48.5596" width="6.08109" height="6.06996" rx="1.34409" fill="white"/>
<rect x="96.3244" y="48.5596" width="6.08109" height="6.06996" rx="1.34409" fill="white"/>
<rect x="120.406" y="48.5596" width="6.08109" height="6.06996" rx="1.34409" fill="white"/>
<rect x="144.487" y="48.5596" width="6.08109" height="6.06996" rx="1.34409" fill="white"/>
<rect x="168.568" y="48.5596" width="6.08109" height="6.06996" rx="1.34409" fill="white"/>
<rect y="72.8394" width="6.08109" height="6.06996" rx="1.34409" fill="white"/>
<rect x="24.0811" y="72.8398" width="6.08109" height="6.06996" rx="1.34409" fill="white"/>
<rect x="48.1622" y="72.8398" width="6.08109" height="6.06996" rx="1.34409" fill="white"/>
<rect x="72.2433" y="72.8398" width="6.08109" height="6.06996" rx="1.34409" fill="white"/>
<rect x="96.3244" y="72.8398" width="6.08109" height="6.06996" rx="1.34409" fill="white"/>
<rect x="120.406" y="72.8398" width="6.08109" height="6.06996" rx="1.34409" fill="white"/>
<rect x="144.487" y="72.8398" width="6.08109" height="6.06996" rx="1.34409" fill="white"/>
<rect x="168.568" y="72.8398" width="6.08109" height="6.06996" rx="1.34409" fill="white"/>
<rect y="97.1191" width="6.08109" height="6.06996" rx="1.34409" fill="white"/>
<rect x="24.0811" y="97.1191" width="6.08109" height="6.06996" rx="1.34409" fill="white"/>
<rect x="48.1622" y="97.1191" width="6.08109" height="6.06996" rx="1.34409" fill="white"/>
<rect x="72.2433" y="97.1191" width="6.08109" height="6.06996" rx="1.34409" fill="white"/>
<rect x="96.3244" y="97.1191" width="6.08109" height="6.06996" rx="1.34409" fill="white"/>
<rect x="120.406" y="97.1191" width="6.08109" height="6.06996" rx="1.34409" fill="white"/>
<rect x="144.487" y="97.1191" width="6.08109" height="6.06996" rx="1.34409" fill="white"/>
<rect x="168.568" y="97.1191" width="6.08109" height="6.06996" rx="1.34409" fill="white"/>
<rect y="121.399" width="6.08109" height="6.06995" rx="1.34409" fill="white"/>
<rect x="24.0811" y="121.399" width="6.08109" height="6.06995" rx="1.34409" fill="white"/>
<rect x="48.1622" y="121.399" width="6.08109" height="6.06995" rx="1.34409" fill="white"/>
<rect x="72.2433" y="121.399" width="6.08109" height="6.06995" rx="1.34409" fill="white"/>
<rect x="96.3244" y="121.399" width="6.08109" height="6.06995" rx="1.34409" fill="white"/>
<rect x="120.406" y="121.399" width="6.08109" height="6.06995" rx="1.34409" fill="white"/>
<rect x="144.487" y="121.399" width="6.08109" height="6.06995" rx="1.34409" fill="white"/>
<rect x="168.568" y="121.399" width="6.08109" height="6.06995" rx="1.34409" fill="white"/>
<rect y="145.679" width="6.08109" height="6.06998" rx="1.34409" fill="white"/>
<rect y="169.096" width="6.08109" height="6.06995" rx="1.34409" fill="white"/>
<rect x="24.0811" y="145.679" width="6.08109" height="6.06998" rx="1.34409" fill="white"/>
<rect x="24.0811" y="169.096" width="6.08109" height="6.06995" rx="1.34409" fill="white"/>
<rect x="48.1622" y="145.679" width="6.08109" height="6.06998" rx="1.34409" fill="white"/>
<rect x="48.1622" y="169.096" width="6.08109" height="6.06995" rx="1.34409" fill="white"/>
<rect x="72.2433" y="145.679" width="6.08109" height="6.06998" rx="1.34409" fill="white"/>
<rect x="72.2433" y="169.096" width="6.08109" height="6.06995" rx="1.34409" fill="white"/>
<rect x="96.3244" y="145.679" width="6.08109" height="6.06998" rx="1.34409" fill="white"/>
<rect x="96.3244" y="169.096" width="6.08109" height="6.06995" rx="1.34409" fill="white"/>
<rect x="120.406" y="145.679" width="6.08109" height="6.06998" rx="1.34409" fill="white"/>
<rect x="120.406" y="169.096" width="6.08109" height="6.06995" rx="1.34409" fill="white"/>
<rect x="144.487" y="145.679" width="6.08109" height="6.06998" rx="1.34409" fill="white"/>
<rect x="144.487" y="169.096" width="6.08109" height="6.06995" rx="1.34409" fill="white"/>
<rect x="168.568" y="145.679" width="6.08109" height="6.06998" rx="1.34409" fill="white"/>
<rect x="168.568" y="169.096" width="6.08109" height="6.06995" rx="1.34409" fill="white"/>
</svg>
