<svg width="1435" height="98" viewBox="0 0 1435 98" fill="none" xmlns="http://www.w3.org/2000/svg">
<path d="M1435 1C955.346 1 475.693 1 -3.96085 1" stroke="url(#paint0_linear_0_3242)" stroke-width="0.3" stroke-miterlimit="10"/>
<path d="M1435 3.69285C1192.12 3.67294 949.351 4.1543 706.526 4.69899C601.462 4.93605 495.678 4.85824 390.624 4.35878C259.119 3.73447 127.554 4.32259 -3.92092 3.69285" stroke="url(#paint1_linear_0_3242)" stroke-width="0.3" stroke-miterlimit="10"/>
<path d="M1435 6.34555C1366.18 6.34555 1297.34 6.24963 1228.53 6.29668C1167.03 6.3383 1105.68 7.24131 1044.2 7.39693C929.685 7.68647 815.188 7.34988 700.68 7.6919C599.044 7.99591 496.358 8.80119 394.791 7.57246C335.594 6.84862 277.006 6.51927 217.759 6.22068C143.812 5.8479 69.9558 6.85948 -3.96085 6.34555" stroke="url(#paint2_linear_0_3242)" stroke-width="0.3" stroke-miterlimit="10"/>
<path d="M1435 8.96209C1367.17 8.96209 1299.16 8.75579 1231.35 8.97838C1167.62 9.18829 1104.27 10.6595 1040.59 11.0377C925.858 11.7199 812.02 9.77099 697.403 10.1184C596.545 10.4188 497.117 12.8582 396.15 10.6758C337.133 9.40002 279.944 8.40111 220.497 8.10976C145.551 7.74784 70.975 9.50859 -3.96085 8.96209" stroke="url(#paint3_linear_0_3242)" stroke-width="0.3" stroke-miterlimit="10"/>
<path d="M1435 11.5284C1368.4 11.5284 1301.31 11.1991 1234.75 11.6533C1168.2 12.1075 1102.6 14.1976 1036.25 14.8726C975.932 15.4861 916.464 15.3214 856.468 13.9859C802.697 12.7879 750.464 11.9229 696.253 12.0532C648.738 12.169 604.22 13.4756 557.294 14.6935C503.593 16.0887 448.303 15.4372 395.101 13.6602C336.543 11.7022 281.313 9.8292 221.516 9.61567C146.091 9.34423 71.5146 11.9971 -3.96085 11.5284" stroke="url(#paint4_linear_0_3242)" stroke-width="0.3" stroke-miterlimit="10"/>
<path d="M1435 14.0583C1369.84 14.0583 1303.68 13.6149 1238.63 14.3243C1169.12 15.0807 1100.79 17.8205 1031.43 18.8483C971.879 19.7423 911.929 19.1295 853.31 17.0279C800.978 15.1784 750.384 13.5263 696.893 13.6023C647.359 13.6728 602.541 15.9439 554.456 17.7807C499.875 19.8653 445.864 19.0745 392.113 16.5465C334.505 13.8321 281.323 10.9077 221.117 10.8299C145.561 10.7304 71.7245 14.3623 -3.96085 14.0565" stroke="url(#paint5_linear_0_3242)" stroke-width="0.3" stroke-miterlimit="10"/>
<path d="M1435 16.5484C1371.38 16.5593 1306.19 16.0055 1242.79 16.9737C1170 18.0757 1098.89 21.476 1026.38 22.8965C965.519 24.0873 909.28 22.9798 850.582 19.9885C800.328 17.4261 751.653 14.86 698.942 14.8546C646.819 14.8546 600.453 18.2657 550.988 20.7558C494.639 23.5914 442.677 22.7662 387.616 19.3406C331.577 15.8553 280.124 11.7403 219.588 11.8307C144.142 11.9538 71.6945 16.6317 -3.96085 16.5484" stroke="url(#paint6_linear_0_3242)" stroke-width="0.3" stroke-miterlimit="10"/>
<path d="M1435 18.9985C1372.98 19.0148 1308.78 18.3995 1247.14 19.5902C1171.01 21.0596 1097.24 25.1168 1021.39 26.9481C959.683 28.4374 906.122 26.845 848.374 22.8602C800.728 19.5721 753.932 16.009 702.079 15.8968C647.279 15.7774 597.874 20.4624 547.191 23.6166C488.663 27.2594 438.689 26.4848 382.13 22.0459C328.269 17.8186 278.045 12.3916 217.249 12.6956C142.074 13.072 71.5346 18.8247 -3.94093 18.9985" stroke="url(#paint7_linear_0_3242)" stroke-width="0.3" stroke-miterlimit="10"/>
<path d="M1435 21.4089C1374.57 21.4306 1311.37 20.7755 1251.39 22.1635C1172.01 24.0002 1095.58 28.6944 1016.56 30.9347C953.608 32.7208 903.084 30.6759 846.555 25.6416C801.847 21.6604 756.94 17.0622 705.807 16.8197C648.328 16.5501 594.957 22.6358 543.104 26.3763C515.944 28.3252 487.314 30.1511 457.706 29.7313C428.727 29.3187 401.286 27.1092 375.945 24.6644C324.862 19.7476 275.098 12.9797 214.312 13.4972C139.466 14.136 71.2847 20.9601 -3.97094 21.4034" stroke="url(#paint8_linear_0_3242)" stroke-width="0.3" stroke-miterlimit="10"/>
<path d="M1434.95 23.7776C1375.99 23.8047 1313.82 23.1334 1255.48 24.6824C1173.07 26.8648 1094.25 32.1652 1012.31 34.7927C947.912 36.8593 900.307 34.4 845.306 28.3288C803.607 23.7251 760.578 18.099 709.904 17.7172C649.947 17.2666 591.989 24.7838 539.147 29.0382C511.467 31.2676 480.94 33.6183 450.022 33.1007C421.043 32.6158 393.892 29.9665 369.66 27.2195C321.345 21.74 272.09 13.6058 211.154 14.3314C136.628 15.2218 71.0755 23.0827 -3.98027 23.7776" stroke="url(#paint9_linear_0_3242)" stroke-width="0.3" stroke-miterlimit="10"/>
<path d="M1434.94 26.1049C1377.39 26.1375 1316.14 25.4661 1259.29 27.1291C1174.19 29.621 1093.25 35.4805 1008.77 38.4591C976.601 39.5919 946.113 40.247 914.606 38.2601C888.934 36.6404 866.351 33.7975 844.566 30.9239C805.594 25.7864 764.454 19.1976 713.901 18.6818C651.746 18.0467 589.131 26.9264 535.43 31.6152C507.27 34.0744 474.863 36.9227 442.766 36.3201C413.658 35.7773 386.867 32.7244 363.674 29.7096C317.927 23.7669 269.262 14.3605 207.996 15.2707C133.74 16.3764 70.905 25.2109 -4.02085 26.1139" stroke="url(#paint10_linear_0_3242)" stroke-width="0.3" stroke-miterlimit="10"/>
<path d="M1434.93 28.3939C1378.59 28.4283 1318.16 27.7606 1262.62 29.4996C1175.37 32.2321 1092.89 38.5947 1006.28 41.8538C974.003 43.0681 943.605 43.8209 912.258 41.5661C886.826 39.7257 865.152 36.5679 844.427 33.412C807.743 27.8329 768.322 20.4171 717.518 19.7928C685.052 19.3929 652.405 22.4602 624.366 25.057C593.258 27.9379 563.35 31.2205 532.252 34.1051C503.673 36.7543 469.697 40.0044 436.521 39.3258C407.202 38.7268 380.831 35.3627 358.467 32.1235C314.819 25.7899 267.073 15.3195 205.218 16.3799C131.092 17.6466 70.8852 27.3606 -4.03073 28.4012" stroke="url(#paint11_linear_0_3242)" stroke-width="0.3" stroke-miterlimit="10"/>
<path d="M1434.92 30.6413C1379.59 30.6757 1319.8 30.0061 1265.33 31.7778C1176.54 34.6641 1093.1 41.461 1005.04 44.9228C972.914 46.1895 942.286 46.9984 911.258 44.5826C885.857 42.6047 864.832 39.1755 844.856 35.8023C809.702 29.8686 771.769 21.8376 720.346 21.1445C686.99 20.6993 653.394 24.0218 624.915 26.7688C592.768 29.8722 561.96 33.4046 529.814 36.5117C500.835 39.3148 465.86 42.82 431.794 42.1052C402.166 41.4827 376.244 37.9087 354.49 34.4831C312.191 27.8256 265.904 16.6042 203.06 17.7352C128.933 19.0688 71.025 29.5628 -4.0408 30.6341" stroke="url(#paint12_linear_0_3242)" stroke-width="0.3" stroke-miterlimit="10"/>
<path d="M1434.9 32.8493C1380.35 32.8783 1320.93 32.1961 1267.26 33.9532C1177.72 36.8848 1094.05 44.0382 1005.31 47.5941C973.623 48.8608 942.426 49.686 911.838 47.2539C886.226 45.218 865.491 41.6042 845.886 38.0882C811.291 31.8739 774.477 23.5208 721.975 22.8476C687.88 22.4097 654.194 25.7665 625.315 28.6384C592.489 31.8957 561.111 35.609 528.295 38.8699C498.946 41.787 463.821 45.3483 429.057 44.639C399.078 44.0273 373.597 40.3882 352.112 36.816C310.142 29.8399 266.064 18.3344 201.751 19.4546C127.434 20.7484 71.2749 31.8884 -4.10063 32.8457" stroke="url(#paint13_linear_0_3242)" stroke-width="0.3" stroke-miterlimit="10"/>
<path d="M1434.89 35.0209C1380.54 35.0824 1321.31 34.3151 1267.87 36.1066C1178.93 39.0943 1096.33 46.4612 1008.3 50.1004C976.701 51.4051 945.524 52.1869 914.956 49.7837C888.974 47.737 867.83 44.0798 847.934 40.5203C812.699 34.2156 775.496 25.7557 722.305 24.9667C687.969 24.4582 654.484 27.7734 625.475 30.6905C592.598 33.9984 561.281 37.7842 528.415 41.0939C498.926 44.0653 463.981 47.5778 428.957 46.8177C398.778 46.1627 373.447 42.5163 351.922 38.9043C309.783 31.8305 266.544 20.477 201.721 21.532C127.194 22.7408 71.6146 34.1848 -4.07071 35.0209" stroke="url(#paint14_linear_0_3242)" stroke-width="0.3" stroke-miterlimit="10"/>
<path d="M1434.88 37.1432C1380.3 37.2554 1321.25 36.2873 1267.62 38.2037C1180.26 41.3253 1099.52 48.8134 1013.09 52.5811C981.118 53.9763 950.76 54.7019 919.752 52.2825C893.301 50.2213 871.407 46.6021 850.782 43.0734C814.378 36.8374 775.606 28.2924 722.415 27.2157C688.289 26.5244 654.684 29.8487 625.924 32.764C593.448 36.0557 562.6 39.845 530.133 43.1403C500.705 46.128 465.76 49.6133 430.785 48.7103C400.697 47.934 374.996 44.2351 353.171 40.6629C310.812 33.7321 266.324 22.5921 202.28 23.6164C127.574 24.8125 71.8144 36.3217 -4.05077 37.1432" stroke="url(#paint15_linear_0_3242)" stroke-width="0.3" stroke-miterlimit="10"/>
<path d="M1434.86 39.2301C1379.97 39.364 1321.08 38.1262 1267.12 40.1548C1181.54 43.3723 1102.91 50.9582 1018.3 54.8127C986.054 56.2857 956.405 56.9426 925.048 54.5539C898.188 52.5072 875.414 48.9821 854.019 45.4805C816.397 39.3278 775.836 30.8136 722.694 29.4763C688.879 28.624 655.533 31.8795 627.033 34.7821C595.106 38.0394 564.908 41.8052 533.001 45.0607C503.662 48.0538 469.047 51.4396 434.233 50.4081C404.114 49.5141 377.953 45.799 355.639 42.2648C312.72 35.4788 266.773 24.6175 203.219 25.6272C128.184 26.818 72.114 38.4013 -4.08094 39.2192" stroke="url(#paint16_linear_0_3242)" stroke-width="0.3" stroke-miterlimit="10"/>
<path d="M1434.84 41.2767C1379.57 41.4051 1320.71 39.8398 1266.37 41.9715C1182.75 45.2488 1106.41 52.9125 1023.79 56.8339C991.41 58.3703 962.321 58.9475 930.704 56.6276C903.364 54.6225 879.741 51.1988 857.517 47.7605C818.325 41.7182 776.346 33.327 723.054 31.7436C689.638 30.7519 656.882 33.8663 628.662 36.749C597.435 39.9412 568.006 43.6744 536.799 46.8702C507.57 49.8651 473.624 53.0826 439.019 51.9371C408.761 50.9327 382.06 47.2321 359.077 43.7468C315.299 37.1109 267.713 26.5826 204.499 27.5869C129.003 28.7867 72.5039 40.4479 -4.15073 41.2712" stroke="url(#paint17_linear_0_3242)" stroke-width="0.3" stroke-miterlimit="10"/>
<path d="M1434.83 43.2832C1379.11 43.3846 1320.27 41.4428 1265.44 43.6669C1183.92 46.973 1110 54.7055 1029.51 58.6487C997.156 60.2375 968.467 60.7315 936.69 58.5129C908.86 56.5694 884.408 53.2651 861.274 49.9317C820.304 44.027 777.045 35.8367 723.554 34.0252C659 31.8374 593.768 43.2235 541.455 48.5908C512.336 51.5803 479.31 54.5752 445.005 53.3212C414.507 52.2046 387.247 48.5401 363.474 45.1073C318.586 38.6271 269.222 28.4752 206.168 29.4849C130.112 30.701 73.0736 42.4472 -4.13068 43.2832" stroke="url(#paint18_linear_0_3242)" stroke-width="0.3" stroke-miterlimit="10"/>
<path d="M1434.81 45.2489C1378.6 45.305 1319.75 42.947 1264.35 45.2489C1185.02 48.5568 1113.65 56.3255 1035.4 60.2813C1003.15 61.91 974.742 62.3153 942.875 60.2252C914.536 58.3631 889.234 55.2054 865.192 51.977C822.442 46.2405 777.895 38.3235 724.133 36.2877C660.559 33.8845 598.134 44.9412 546.791 50.2217C518.402 53.137 485.306 56.0758 451.94 54.5738C420.962 53.1804 393.672 49.8019 368.55 46.3636C322.373 40.048 271.11 30.3069 208.056 31.3275C131.351 32.5671 73.7031 44.402 -4.15073 45.2615" stroke="url(#paint19_linear_0_3242)" stroke-width="0.3" stroke-miterlimit="10"/>
<path d="M1434.79 47.1758C1378.05 47.1758 1319.14 44.3654 1263.12 46.7523C1186.05 50.0368 1117.3 57.838 1041.35 61.7721C909.45 68.6106 840.639 43.3647 724.773 38.533C662.318 35.9254 603.051 46.584 552.637 51.7577C524.378 54.6531 492.561 57.2897 459.614 55.7027C428.247 54.1916 400.317 50.8873 374.186 47.5142C326.57 41.3615 273.319 32.0637 210.134 33.1006C132.72 34.3673 74.3925 46.2945 -4.18074 47.1758" stroke="url(#paint20_linear_0_3242)" stroke-width="0.3" stroke-miterlimit="10"/>
<path d="M1434.77 49.0615C1377.48 48.9855 1318.47 45.7137 1261.79 48.1711C1187.01 51.4121 1120.89 59.2315 1047.31 63.1312C918.133 69.9752 839.46 45.9399 725.462 40.7626C664.087 37.9721 608.377 48.1585 558.883 53.2326C530.743 56.1171 500.315 58.4063 467.838 56.7469C436.051 55.1182 407.412 51.8971 380.232 48.5946C331.087 42.6229 275.807 33.772 212.353 34.8325C134.179 36.1372 75.1221 48.1512 -4.21065 49.0615" stroke="url(#paint21_linear_0_3242)" stroke-width="0.3" stroke-miterlimit="10"/>
<path d="M1434.75 50.9072C1376.89 50.7533 1317.76 47.0038 1260.37 49.5228C1187.88 52.7041 1124.46 60.5325 1053.17 64.3797C926.727 71.2038 838.321 48.4823 726.172 42.9593C665.895 39.9916 613.973 49.6766 565.348 54.6512C537.308 57.5195 508.389 59.4413 476.412 57.7276C444.185 55.9922 414.807 52.8416 386.547 49.6205C335.824 43.8298 278.505 35.4404 214.731 36.5243C135.788 37.8689 75.9514 49.9734 -4.17074 50.9144" stroke="url(#paint22_linear_0_3242)" stroke-width="0.3" stroke-miterlimit="10"/>
<path d="M1434.73 52.7135C1376.31 52.48 1317.02 48.251 1258.86 50.8224C1188.61 53.9313 1127.81 61.7633 1058.81 65.5454C935.061 72.3297 837.202 50.9726 726.891 45.1185C667.704 41.977 619.679 51.1463 571.883 56.0251C543.964 58.8752 516.453 60.4188 485.006 58.6436C452.33 56.7978 422.181 53.7268 392.863 50.5854C340.55 44.9756 281.213 37.0494 217.04 38.1605C137.267 39.5431 76.691 51.7327 -4.23059 52.7135" stroke="url(#paint23_linear_0_3242)" stroke-width="0.3" stroke-miterlimit="10"/>
<path d="M1434.71 54.4775C1375.75 54.1663 1316.26 49.4685 1257.43 52.0834C1189.34 55.1109 1131.11 62.9411 1064.31 66.649C943.005 73.3807 836.072 53.4135 727.551 47.2318C669.443 43.9202 625.325 52.5738 578.309 57.3656C550.509 60.1977 524.348 61.3631 493.5 59.5372C460.374 57.5792 429.466 54.5788 399.098 51.5242C345.247 46.1062 283.931 38.6271 219.318 39.7617C138.746 41.1823 77.4205 53.4714 -4.2905 54.4739" stroke="url(#paint24_linear_0_3242)" stroke-width="0.3" stroke-miterlimit="10"/>
<path d="M1434.69 56.204C1375.14 55.8185 1315.51 50.6702 1255.96 53.3212C1189.92 56.2619 1134.15 64.0866 1069.42 67.7149C950.45 74.3851 834.963 55.804 728.26 49.2949C671.122 45.8095 630.951 53.9836 584.584 58.6795C556.874 61.4844 532.082 62.2987 501.754 60.4204C468.198 58.3502 436.541 55.4095 405.184 52.4436C349.854 47.212 286.649 40.1726 221.586 41.3362C140.255 42.7929 78.2098 55.1707 -4.25068 56.204" stroke="url(#paint25_linear_0_3242)" stroke-width="0.3" stroke-miterlimit="10"/>
<path d="M1434.67 57.8888C1374.56 57.44 1314.76 51.8682 1254.54 54.5464C1190.39 57.3984 1136.93 65.2232 1074.14 68.7664C1013.23 72.2046 948.441 68.323 891.552 64.1754C836.692 60.1743 784.54 54.9265 728.86 51.2982C672.441 47.621 636.457 55.4096 590.44 59.9843C529.334 66.0556 466.749 58.3557 410.819 53.3629C354.15 48.3105 289.167 41.6909 223.675 42.8799C141.624 44.3674 78.8992 56.832 -4.29068 57.8906" stroke="url(#paint26_linear_0_3242)" stroke-width="0.3" stroke-miterlimit="10"/>
<path d="M1434.65 59.5355C1373.98 59.0343 1314.17 53.077 1253.18 55.7751C1190.74 58.5402 1139.4 66.3596 1078.31 69.825C1017.96 73.2524 951.459 69.53 894.3 65.7316C838.331 62.0111 785.059 57.098 729.39 53.2326C673.72 49.3673 641.203 56.7741 595.776 61.2836C536.059 67.2101 470.866 58.9311 415.906 54.2895C358.048 49.4035 291.416 43.1857 225.563 44.3909C142.873 45.9055 79.5289 58.4534 -4.27057 59.5355" stroke="url(#paint27_linear_0_3242)" stroke-width="0.3" stroke-miterlimit="10"/>
<path d="M1434.63 61.1405C1373.39 60.5976 1313.63 54.3074 1251.93 57.0218C1190.98 59.7018 1141.53 67.5175 1082.05 70.916C1022.17 74.3271 954.147 70.7567 896.729 67.2732C839.77 63.8151 785.429 59.1969 729.849 55.0945C703.628 53.1601 684.412 53.0804 659.06 55.5759C638.455 57.6045 621.028 60.5505 600.453 62.5936C573.002 65.3225 551.138 65.2465 522.389 63.2179C487.844 60.7767 454.188 57.97 420.293 55.2429C361.465 50.5235 293.384 44.6676 227.232 45.8836C143.972 47.4145 80.0984 60.0456 -4.30068 61.1405" stroke="url(#paint28_linear_0_3242)" stroke-width="0.3" stroke-miterlimit="10"/>
<path d="M1434.61 62.708C1372.8 62.1651 1313.22 55.5745 1250.8 58.2979C1191.06 60.9056 1143.3 68.7503 1085.02 72.0619C1025.45 75.4476 956.176 72.0257 898.527 68.8046C840.879 65.5834 785.529 61.2042 730.129 56.8611C704.528 54.8542 685.811 54.5701 660.679 57.0529C640.754 59.0218 624.126 61.928 604.25 63.9114C576.95 66.6366 555.425 66.3471 527.176 64.2516C492.461 61.6765 458.285 58.8752 423.75 56.2241C364.183 51.653 294.773 46.1229 228.521 47.3425C144.802 48.8825 80.4982 61.5896 -4.3106 62.6917" stroke="url(#paint29_linear_0_3242)" stroke-width="0.3" stroke-miterlimit="10"/>
<path d="M1434.59 64.2314C1372.21 63.7029 1312.96 56.8843 1249.84 59.615C1190.99 62.1648 1144.72 70.0692 1087.25 73.283C1027.75 76.6145 957.735 73.3482 899.727 70.3569C841.249 67.3439 785.419 63.1474 730.249 58.5655C705.167 56.4844 686.66 56.0465 661.718 58.5293C642.332 60.4565 626.374 63.3446 607.048 65.29C579.878 68.0243 558.373 67.5809 530.553 65.4058C495.788 62.6914 461.213 59.8828 426.149 57.2879C366.192 52.8489 295.623 47.6046 229.421 48.8153C145.371 50.3534 80.7581 63.1329 -4.41037 64.2314" stroke="url(#paint30_linear_0_3242)" stroke-width="0.3" stroke-miterlimit="10"/>
<path d="M1434.57 65.717C1371.62 65.2375 1312.88 58.2542 1249.06 60.9921C1190.82 63.4912 1145.55 71.43 1088.77 74.6058C1029.46 77.9211 958.524 74.7253 900.366 71.9204C841.289 69.0702 785.209 64.9877 730.299 60.1579C705.627 57.9864 687.02 57.4616 662.208 59.9606C643.222 61.8734 627.763 64.7634 608.807 66.6942C581.736 69.4521 559.932 68.9309 532.442 66.6562C497.747 63.7862 462.912 60.9577 427.458 58.4062C367.321 54.0794 295.933 49.0704 230 50.2629C145.751 51.7848 80.9778 64.6331 -4.39057 65.717" stroke="url(#paint31_linear_0_3242)" stroke-width="0.3" stroke-miterlimit="10"/>
<path d="M1434.54 67.1651C1371.27 66.7344 1312.94 59.6751 1248.73 62.4384C1190.69 64.9357 1145.69 72.8672 1089.09 76.025C1029.84 79.3294 958.584 76.0684 900.406 73.3232C841.119 70.5256 785.219 66.4739 730.239 61.6223C705.657 59.4508 686.79 58.9983 662.148 61.4811C643.292 63.3812 627.933 66.2459 609.076 68.1514C582.096 70.8767 559.892 70.37 532.662 68.0301C498.116 65.0624 463.242 62.2122 427.637 59.686C367.791 55.4388 295.473 50.4859 230.05 51.7237C145.921 53.3125 80.7279 65.9436 -4.42063 67.1597" stroke="url(#paint32_linear_0_3242)" stroke-width="0.3" stroke-miterlimit="10"/>
<path d="M1434.52 68.5892C1371.11 68.1802 1312.95 61.0738 1248.59 63.8697C1190.64 66.3887 1145.41 74.2532 1088.77 77.3911C1029.52 80.6738 958.424 77.2699 900.336 74.5066C841.239 71.6944 785.579 67.65 730.219 63.0282C677.817 58.6544 651.846 65.3807 608.687 69.5754C581.706 72.1975 559.362 71.7198 532.382 69.3709C497.987 66.376 463.172 63.5331 427.577 61.0358C368.08 56.8629 294.823 51.8864 229.87 53.2292C146.101 54.9628 80.1084 67.0799 -4.47053 68.562" stroke="url(#paint33_linear_0_3242)" stroke-width="0.3" stroke-miterlimit="10"/>
<path d="M1434.5 69.9916C1370.9 69.5971 1312.88 62.4383 1248.32 65.2577C1190.37 67.7911 1144.96 75.5725 1088.29 78.6814C1029.04 81.9387 958.154 78.4045 900.156 75.6322C841.289 72.8182 785.839 68.7919 730.159 64.4035C678.197 60.3066 651.296 66.9135 608.107 70.9182C581.127 73.4263 558.583 72.963 531.842 70.6105C497.607 67.5993 462.892 64.7781 427.308 62.3243C368.05 58.2364 294.064 53.3124 229.65 54.7456C146.301 56.5987 79.4989 68.1893 -4.46051 69.9066" stroke="url(#paint34_linear_0_3242)" stroke-width="0.3" stroke-miterlimit="10"/>
<path d="M1434.48 71.3687C1370.66 70.9851 1312.73 63.7683 1247.94 66.6004C1190.05 69.1302 1144.37 76.8229 1087.66 79.8992C1028.41 83.1022 957.755 79.4794 899.866 76.7053C841.279 73.9003 785.949 69.9047 730.069 65.7589C678.476 61.9352 650.656 68.3955 607.358 72.2138C580.307 74.5971 557.594 74.1338 531.053 71.7831C497.007 68.7665 462.362 65.9779 426.838 63.5819C367.731 59.5917 293.294 54.789 229.321 56.2964C146.38 58.249 78.8092 69.2949 -4.51063 71.2239" stroke="url(#paint35_linear_0_3242)" stroke-width="0.3" stroke-miterlimit="10"/>
<path d="M1434.46 72.7222C1370.37 72.3421 1312.55 65.0693 1247.43 67.9032C1189.59 70.4185 1143.63 78.0243 1086.87 81.0391C1027.64 84.1861 957.345 80.4818 899.477 77.7167C841.209 74.9299 786.049 70.9759 729.939 67.0798C678.736 63.5239 649.937 69.8141 606.438 73.4261C579.298 75.6809 556.404 75.2013 530.034 72.8579C496.254 69.8259 461.592 67.1281 426.198 64.7761C367.141 60.8963 292.495 56.271 228.891 57.8471C146.491 59.8793 78.0899 70.3679 -4.50043 72.4797" stroke="url(#paint36_linear_0_3242)" stroke-width="0.3" stroke-miterlimit="10"/>
<path d="M1434.43 74.0503C1370.05 73.6702 1312.25 66.3341 1246.81 69.1643C1189.02 71.6598 1142.75 79.1642 1085.92 82.1175C1026.71 85.1939 956.715 81.4317 898.957 78.6792C840.999 75.9214 785.989 72.0217 729.749 68.3789C678.926 65.0854 649.087 71.1893 605.329 74.5823C578.059 76.6977 554.995 76.191 528.774 73.8584C495.198 70.8466 460.662 68.1993 425.349 65.9305C366.262 62.172 291.625 57.7981 228.361 59.4159C146.49 61.5096 77.3103 71.4245 -4.56061 73.701" stroke="url(#paint37_linear_0_3242)" stroke-width="0.3" stroke-miterlimit="10"/>
<path d="M1434.41 75.3495C1369.7 74.9677 1311.91 67.5682 1246.1 70.3767C1188.35 72.8414 1141.75 80.2373 1084.9 83.12C1025.73 86.1203 956.096 82.3129 898.388 79.584C840.859 76.8696 785.869 73.0314 729.569 69.6474C679.106 66.6127 648.168 72.5084 604.11 75.6716C576.69 77.6405 553.447 77.0958 527.335 74.7668C493.989 71.7837 459.608 69.196 424.41 67.0199C365.223 63.4006 290.816 59.3182 227.822 60.9739C146.52 63.1093 76.591 72.4397 -4.54041 74.8555" stroke="url(#paint38_linear_0_3242)" stroke-width="0.3" stroke-miterlimit="10"/>
<path d="M1434.39 76.6238C1369.32 76.2329 1311.48 68.7628 1245.29 71.5569C1187.58 73.9781 1140.64 81.2564 1083.73 84.0613C1024.6 86.9748 955.346 83.1402 897.768 80.4421C840.639 77.7638 785.709 74.0125 729.39 70.8891C679.276 68.1114 647.179 73.7845 602.791 76.7052C575.201 78.5148 551.778 77.9285 525.747 75.6194C492.621 72.6717 458.383 70.1531 423.291 68.0824C363.914 64.6025 289.927 60.8657 227.162 62.5504C146.451 64.7219 75.8016 73.4461 -4.57038 75.9868" stroke="url(#paint39_linear_0_3242)" stroke-width="0.3" stroke-miterlimit="10"/>
<path d="M1434.37 77.8689C1368.91 77.4671 1311.08 69.9247 1244.4 72.6807C1186.73 75.0658 1139.42 82.221 1082.45 84.939C1023.37 87.7566 954.547 83.9094 897.048 81.2456C840.319 78.6163 785.439 74.959 729.17 72.0998C679.396 69.5664 646.07 75.0079 601.332 77.6771C573.552 79.3329 549.949 78.6832 523.978 76.4103C491.084 73.5073 457.008 71.0656 422.052 69.1067C362.445 65.7861 289.058 62.4347 226.473 64.1393C146.361 66.3109 75.0421 74.436 -4.57041 77.0817" stroke="url(#paint40_linear_0_3242)" stroke-width="0.3" stroke-miterlimit="10"/>
<path d="M1434.35 79.0831C1368.48 78.6669 1310.59 71.052 1243.49 73.7701C1185.79 76.0991 1138.11 83.1312 1081.08 85.7552C1022.05 88.4696 953.708 84.6241 896.209 82.0002C839.9 79.4269 785.059 75.8747 728.85 73.2815C679.416 70.9996 644.791 76.1877 599.683 78.5927C571.703 80.0838 547.931 79.3708 521.979 77.1088C489.325 74.2568 455.419 71.9004 420.612 70.064C360.776 66.9135 288.128 63.9746 225.683 65.6992C146.201 67.8834 74.2426 75.3752 -4.61048 78.1113" stroke="url(#paint41_linear_0_3242)" stroke-width="0.3" stroke-miterlimit="10"/>
<path d="M1434.33 80.2612C1368.05 79.8324 1310.09 72.1451 1242.4 74.8179C1184.79 77.0944 1136.72 83.989 1079.62 86.5134C1020.66 89.1211 952.788 85.2847 895.42 82.7133C839.52 80.2015 784.72 76.7669 728.63 74.4379C679.506 72.3967 643.512 77.3333 598.054 79.4614C569.875 80.7842 545.912 80.0043 519.951 77.7585C487.543 74.9635 453.82 72.6991 419.184 70.9924C358.957 68.0246 287.209 65.5455 224.864 67.2664C146.001 69.4379 73.4732 76.3 -4.63037 79.1139" stroke="url(#paint42_linear_0_3242)" stroke-width="0.3" stroke-miterlimit="10"/>
<path d="M1434.31 81.4193C1367.55 80.965 1309.48 73.2036 1241.31 75.8257C1183.71 78.0389 1135.22 84.796 1078.08 87.2154C1019.17 89.7073 951.809 85.8926 894.52 83.3646C839.04 80.9162 784.28 77.6118 728.34 75.5471C679.506 73.7374 642.093 78.4081 596.296 80.2521C567.906 81.4012 543.764 80.538 517.762 78.323C485.601 75.5907 452.064 73.4243 417.615 71.8536C357.018 69.0813 286.27 67.0781 224.004 68.8008C145.761 70.9633 72.7138 77.1703 -4.65033 80.0494" stroke="url(#paint43_linear_0_3242)" stroke-width="0.3" stroke-miterlimit="10"/>
<path d="M1434.29 82.5392C1367.05 82.0615 1308.88 74.2258 1240.14 76.79C1182.59 78.9381 1133.71 85.5522 1076.47 87.8613C1017.64 90.2355 950.8 86.448 893.601 83.976C838.521 81.5964 783.83 78.4314 728.071 76.6308C679.486 75.0619 640.624 79.4502 594.477 81.0191C565.888 81.9909 541.575 81.0426 515.484 78.8476C483.573 76.1832 450.231 74.1214 415.986 72.6949C355.03 70.1325 285.36 68.6269 223.125 70.3424C145.491 72.4795 71.9843 78.0314 -4.67035 80.9684" stroke="url(#paint44_linear_0_3242)" stroke-width="0.3" stroke-miterlimit="10"/>
<path d="M1434.27 83.6254C1366.56 83.1223 1308.24 75.2125 1238.97 77.7152C1181.41 79.7945 1132.12 86.262 1074.81 88.4571C1016.06 90.7064 949.75 86.9569 892.592 84.5429C837.901 82.232 783.291 79.219 727.711 77.6808C679.336 76.3435 638.995 80.4459 592.518 81.7253C563.719 82.5197 539.237 81.481 513.046 79.3185C481.383 76.7231 448.237 74.7677 414.207 73.488C352.841 71.1481 284.361 70.1565 222.146 71.8593C145.201 73.9693 71.2548 78.8517 -4.69031 81.8375" stroke="url(#paint45_linear_0_3242)" stroke-width="0.3" stroke-miterlimit="10"/>
<path d="M1434.25 84.6765C1366.05 84.1463 1307.58 76.1713 1237.74 78.598C1180.18 80.6049 1130.48 86.9259 1073.1 89.0015C1014.43 91.1187 948.661 87.4163 891.573 85.0638C837.252 82.8253 782.741 79.9733 727.401 78.6957C679.196 77.5828 637.386 81.3939 590.61 82.3837C561.631 82.9972 536.959 81.8644 510.668 79.729C479.251 77.2074 446.305 75.364 412.509 74.2369C350.753 72.1323 283.482 71.6636 221.267 73.3538C144.882 75.4276 70.6453 79.6349 -4.64029 82.6642" stroke="url(#paint46_linear_0_3242)" stroke-width="0.3" stroke-miterlimit="10"/>
<path d="M1434.23 85.6899C1365.53 85.1326 1306.89 77.0762 1236.49 79.4395C1178.94 81.374 1128.8 87.543 1071.35 89.4901C1012.78 91.4807 947.562 87.8198 890.483 85.5325C836.522 83.3609 782.132 80.6845 727.021 79.6657C678.906 78.7754 635.667 82.2897 588.531 82.9882C559.342 83.4207 534.57 82.1883 508.029 80.0819C476.855 77.6354 444.11 75.9064 410.56 74.9354C269.662 70.7208 131.591 77.8308 -4.78018 83.4406" stroke="url(#paint47_linear_0_3242)" stroke-width="0.3" stroke-miterlimit="10"/>
<path d="M1434.21 86.6705C1365 86.0824 1306.19 77.9554 1235.21 80.2446C1177.67 82.1012 1127.09 88.1164 1069.57 89.9495C1011.11 91.8134 946.433 88.1978 889.474 85.9774C835.823 83.8801 781.592 81.3774 726.731 80.6228C678.626 79.955 634.028 83.1562 586.543 83.5724C557.184 83.8258 532.202 82.4867 505.511 80.411C474.694 77.9988 441.967 76.4607 408.741 75.6101C271.43 72.0941 128.214 78.6213 -4.75022 84.1931" stroke="url(#paint48_linear_0_3242)" stroke-width="0.3" stroke-miterlimit="10"/>
<path d="M1434.19 87.6117C1364.47 86.9928 1305.48 78.7953 1233.93 81.0084C1176.37 82.7945 1125.37 88.6486 1067.79 90.3587C1009.42 92.0905 945.304 88.5237 888.405 86.3775C835.043 84.3598 781.002 82.0345 726.392 81.526C678.197 81.0772 632.34 83.9762 584.494 84.0974C554.966 84.1716 529.824 82.7276 502.923 80.6773C472.305 78.3447 439.799 76.9386 406.853 76.2401C344.088 74.91 280.444 76.0428 218.199 77.6697C143.513 79.6223 68.7167 81.7648 -4.77027 84.9081" stroke="url(#paint49_linear_0_3242)" stroke-width="0.3" stroke-miterlimit="10"/>
<path d="M1434.17 88.5149C1364.54 87.8761 1305.63 79.6641 1234.15 81.6872C1176.82 83.3159 1125.72 88.942 1068.58 90.6484C1010.83 92.373 948.002 88.951 891.602 86.8844C837.082 84.8939 781.852 82.6698 726.042 82.3912C676.498 82.1432 628.223 84.883 578.788 84.5627C548.95 84.3691 524.078 82.6029 496.727 80.6413C468.318 78.6036 438.32 77.4364 407.982 76.8845C343.408 75.7101 279.364 77.4419 215.561 79.0759C141.914 80.9616 67.6073 82.4129 -4.82038 85.5652" stroke="url(#paint50_linear_0_3242)" stroke-width="0.3" stroke-miterlimit="10"/>
<path d="M1434.16 89.3778C1364.05 88.7082 1304.9 80.4274 1232.89 82.3728C1175.55 83.9218 1124.04 89.3995 1066.82 90.9811C1009.18 92.5663 946.853 89.1932 890.533 87.1936C836.272 85.2645 781.252 83.2124 725.732 83.2124C675.898 83.2124 626.554 85.5884 576.71 84.9822C546.831 84.6203 521.75 82.7528 494.189 80.8328C465.97 78.8675 436.171 77.8234 406.093 77.4108C341.31 76.5223 278.375 78.8078 214.581 80.3967C141.414 82.2189 67.1178 82.9953 -4.80023 86.1874" stroke="url(#paint51_linear_0_3242)" stroke-width="0.3" stroke-miterlimit="10"/>
<path d="M1434.14 90.1993C1363.5 89.499 1304.23 81.1512 1231.61 83.0206C1174.25 84.4972 1122.35 89.8211 1065.04 91.2797C1007.52 92.7472 945.683 89.3977 889.394 87.4632C835.433 85.6047 780.623 83.7372 725.392 84.0014C675.199 84.2421 624.885 86.2616 574.621 85.3731C544.703 84.8429 519.421 82.8758 491.681 80.9974C463.701 79.1028 434.043 78.1817 404.244 77.9084C339.291 77.3094 277.396 80.1379 213.622 81.6833C140.914 83.4458 66.728 83.5436 -4.77039 86.7755" stroke="url(#paint52_linear_0_3242)" stroke-width="0.3" stroke-miterlimit="10"/>
<path d="M1434.12 90.9792C1362.99 90.2554 1303.47 81.837 1230.34 83.6286C1172.97 85.0346 1120.67 90.2137 1063.27 91.542C1005.87 92.8702 944.534 89.5659 888.395 87.6984C834.564 85.9069 780.013 84.2149 725.083 84.7451C674.449 85.2337 623.276 86.8913 572.593 85.7241C542.614 85.0346 517.153 82.9608 489.153 81.1259C461.153 79.2909 431.874 78.5019 402.356 78.3644C337.403 78.0586 276.327 81.4172 212.623 82.9192C140.335 84.6238 66.2084 84.0448 -4.81029 87.3238" stroke="url(#paint53_linear_0_3242)" stroke-width="0.3" stroke-miterlimit="10"/>
<path d="M1434.11 91.7178C1362.49 90.9577 1302.77 82.4887 1229.11 84.197C1171.71 85.5343 1119.03 90.556 1061.55 91.772C1004.31 92.9827 943.355 89.7 887.316 87.8959C833.644 86.1695 779.393 84.6548 724.733 85.4456C673.6 86.1858 621.667 87.4833 570.534 86.0428C540.646 85.1995 514.885 83.0171 486.685 81.2238C459.005 79.4649 429.726 78.7881 400.527 78.7826C335.574 78.7682 275.278 82.6407 211.663 84.1029C139.715 85.7569 65.7688 84.5028 -4.81021 87.8343" stroke="url(#paint54_linear_0_3242)" stroke-width="0.3" stroke-miterlimit="10"/>
<path d="M1434.1 92.4106C1362 91.6253 1302.1 83.0857 1227.91 84.7288C1170.48 85.9956 1117.42 90.8815 1059.87 91.9673C1002.69 93.0531 942.346 89.7958 886.296 88.0549C832.735 86.3973 778.754 85.0528 724.413 86.1005C672.73 87.0958 620.128 88.0332 568.526 86.3249C538.647 85.3387 512.666 83.0459 484.257 81.2942C456.706 79.5968 427.677 79.0412 398.748 79.1643C333.895 79.4375 274.228 83.8059 210.704 85.2337C139.166 86.8407 65.409 84.9116 -4.84031 88.3101" stroke="url(#paint55_linear_0_3242)" stroke-width="0.3" stroke-miterlimit="10"/>
<path d="M1434.08 93.0605C1361.53 92.248 1301.42 83.6506 1226.74 85.2213C1169.28 86.4319 1115.82 91.1605 1058.24 92.1431C1001.18 93.1166 941.326 89.8648 885.307 88.1891C831.846 86.5948 778.134 85.4185 724.103 86.7179C671.841 87.9737 618.59 88.5564 566.627 86.5857C536.779 85.4547 510.578 83.0534 481.918 81.3379C454.538 79.7092 425.659 79.2604 396.98 79.5084C332.296 80.0639 273.139 84.9064 209.725 86.3034C138.526 87.8724 64.9894 85.2738 -4.92008 88.7392" stroke="url(#paint56_linear_0_3242)" stroke-width="0.3" stroke-miterlimit="10"/>
<path d="M1434.07 93.665C1361.12 92.8272 1300.79 84.1682 1225.63 85.6756C1168.14 86.8301 1114.38 91.4157 1056.67 92.2897C999.714 93.1511 940.297 89.9047 884.368 88.2869C830.976 86.7396 777.535 85.7407 723.824 87.2862C670.952 88.8062 617.221 89.0415 564.808 86.8157C535.02 85.5489 508.569 83.039 479.72 81.3633C452.48 79.7817 423.76 79.4541 395.381 79.8197C330.927 80.6503 272.18 85.9398 208.885 87.3187C137.937 88.8587 64.6997 85.5942 -4.90008 89.1428" stroke="url(#paint57_linear_0_3242)" stroke-width="0.3" stroke-miterlimit="10"/>
<path d="M1434.06 94.2202C1360.65 93.3625 1300.16 84.6455 1224.58 86.0932C1167.04 87.1935 1112.95 91.6433 1055.18 92.4106C998.315 93.1652 939.358 89.9188 883.478 88.3516C830.137 86.8551 776.955 86.0227 723.544 87.8088C670.132 89.5948 615.872 89.4899 563.05 87.018C533.331 85.6264 506.62 83.0368 477.611 81.3683C450.631 79.8139 421.872 79.6184 393.842 80.1016C329.648 81.1874 271.23 86.9039 208.066 88.2648C137.427 89.7867 64.3998 85.8616 -4.90012 89.5062" stroke="url(#paint58_linear_0_3242)" stroke-width="0.3" stroke-miterlimit="10"/>
<path d="M1434 94.7378C1360.19 93.8619 1299.57 85.0871 1223.54 86.4787C1166.02 87.5265 1111.61 91.8424 1053.78 92.5102C997.036 93.1652 938.459 89.9079 882.639 88.386C829.327 86.9384 776.396 86.2634 723.294 88.2847C669.193 90.3422 614.612 89.9134 561.411 87.1989C531.752 85.6897 504.812 83.0024 475.633 81.3575C448.762 79.8429 420.153 79.756 392.413 80.3369C362.145 80.9721 332.636 82.427 303.577 84.0412C272.22 85.7802 239.953 88.4331 207.287 89.1352C136.887 90.6499 64.11 86.0734 -4.91011 89.8265" stroke="url(#paint59_linear_0_3242)" stroke-width="0.3" stroke-miterlimit="10"/>
<path d="M1434 95.1904C1359.83 94.3001 1299.1 85.4692 1222.63 86.8137C1165.06 87.8271 1110.36 92.0236 1052.46 92.5918C995.807 93.1546 937.649 89.8774 881.879 88.3935C828.568 86.9784 775.846 86.4627 723.054 88.712C668.363 91.0428 613.423 90.3027 559.832 87.353C530.303 85.7243 503.133 82.9556 473.804 81.3342C447.043 79.8558 418.564 79.8666 391.094 80.547C360.885 81.2926 331.547 82.8742 302.658 84.5915C271.53 86.4409 239.213 89.2314 206.557 89.9389C136.378 91.4572 63.8301 86.2383 -4.92028 90.1199" stroke="url(#paint60_linear_0_3242)" stroke-width="0.3" stroke-miterlimit="10"/>
<path d="M1434 95.6011C1359.49 94.6963 1298.6 85.8129 1221.8 87.1176C1164.2 88.0984 1109.24 92.1682 1051.28 92.655C994.708 93.131 936.94 89.8157 881.21 88.3699C827.888 86.9891 775.356 86.6182 722.874 89.0937C667.554 91.6941 612.364 90.6626 558.393 87.4868C528.974 85.7568 501.604 82.903 472.125 81.2997C445.475 79.852 417.165 79.9533 389.895 80.7224C359.756 81.573 330.568 83.274 301.828 85.0854C270.911 87.0344 238.554 89.9478 205.898 90.6663C135.948 92.2044 63.5703 86.3503 -4.9502 90.3713" stroke="url(#paint61_linear_0_3242)" stroke-width="0.3" stroke-miterlimit="10"/>
<path d="M1434 95.9614C1359.18 95.0566 1298.19 86.1117 1221.06 87.3857C1163.39 88.3393 1108.15 92.297 1050.13 92.7041C993.619 93.1022 936.21 89.7382 880.54 88.3212C827.199 86.9658 774.817 86.7324 722.654 89.4197C666.765 92.2988 611.435 90.9958 557.084 87.6101C527.765 85.7805 500.215 82.8526 470.616 81.2637C444.056 79.8396 415.846 80.0205 388.835 80.8711C358.737 81.8193 329.708 83.6289 301.099 85.5272C270.351 87.5702 237.974 90.5833 205.278 91.318C135.468 92.8887 63.2705 86.4139 -4.9502 90.5941" stroke="url(#paint62_linear_0_3242)" stroke-width="0.3" stroke-miterlimit="10"/>
<path d="M1434 96.269C1358.89 95.3642 1297.84 86.3632 1220.41 87.6173C1162.73 88.551 1107.24 92.4037 1049.17 92.7475C992.719 93.0751 935.69 89.6513 880.021 88.2543C826.649 86.9152 774.367 86.8066 722.504 89.702C666.035 92.8561 610.675 91.3071 555.925 87.7114C526.736 85.7932 499.026 82.7983 469.317 81.2203C442.836 79.8124 414.767 80.0621 387.946 80.985C357.888 82.022 328.989 83.9293 300.499 85.9072C269.891 88.0335 237.545 91.1243 204.758 91.8789C135.099 93.4985 62.9907 86.4139 -4.96021 90.7787" stroke="url(#paint63_linear_0_3242)" stroke-width="0.3" stroke-miterlimit="10"/>
<path d="M1434 96.5259C1359.26 95.6211 1298.41 86.6201 1221.43 87.7873C1160.61 88.7083 1101.81 92.8686 1040.43 92.7836C987.963 92.7112 935.311 89.5896 883.478 88.2469C828.408 86.8209 775.696 86.8607 722.365 89.9136C663.227 93.2903 607.817 91.5151 550.818 87.4995C525.267 85.7008 500.924 83.2469 475.183 81.5622C447.943 79.7797 418.034 79.9534 390.005 80.9433C358.198 82.0653 327.75 84.2006 297.751 86.3721C267.513 88.569 235.366 91.6616 202.76 92.3855C133.81 93.9074 62.1014 86.3939 -4.9502 90.9251" stroke="url(#paint64_linear_0_3242)" stroke-width="0.3" stroke-miterlimit="10"/>
<path d="M1434 96.7285C1359.05 95.8364 1298.2 86.7756 1221.01 87.9446C1160.17 88.8676 1101.1 92.9301 1039.75 92.7944C987.313 92.6768 934.931 89.4683 883.128 88.1238C828.018 86.6942 775.316 86.8354 722.245 90.0872C662.508 93.7499 607.388 91.7666 549.919 87.5538C524.487 85.6899 500.075 83.2143 474.264 81.5278C447.083 79.7435 417.305 79.9534 389.435 80.9994C357.648 82.1919 327.32 84.4195 297.411 86.649C267.213 88.9001 235.076 92.0271 202.39 92.7872C133.57 94.376 61.7816 86.2997 -4.96021 91.0499" stroke="url(#paint65_linear_0_3242)" stroke-width="0.3" stroke-miterlimit="10"/>
<path d="M1434 96.8735C1358.9 95.9959 1298.1 86.8808 1220.69 88.068C1159.84 89.0017 1100.64 92.9774 1039.21 92.7983C986.794 92.6463 934.661 89.3347 882.879 87.9793C827.738 86.5316 774.957 86.7614 722.225 90.2087C661.908 94.1501 607.228 92.0002 549.27 87.6101C523.898 85.6901 499.426 83.1892 473.594 81.4828C446.434 79.6894 416.915 79.9156 389.065 81.0105C324.722 83.5439 267.073 91.4755 202.11 93.0752C133.41 94.7671 61.4319 86.1461 -4.96021 91.1353" stroke="url(#paint66_linear_0_3242)" stroke-width="0.3" stroke-miterlimit="10"/>
<path d="M1434 96.9653C1358.78 96.1058 1298 86.9365 1220.5 88.1525C1159.64 89.1098 1100.24 93.0077 1038.84 92.7996C986.414 92.6186 934.511 89.1912 882.749 87.8123C827.589 86.3429 774.627 86.6397 722.195 90.2734C661.349 94.4916 607.278 92.2169 548.77 87.6494C523.608 85.6896 499.076 83.0928 473.184 81.4533C445.684 79.7143 417.055 79.8554 388.905 80.9991C324.452 83.6194 267.123 91.5582 201.93 93.2737C133.32 95.0833 61.0321 85.9357 -4.92028 91.189" stroke="url(#paint67_linear_0_3242)" stroke-width="0.3" stroke-miterlimit="10"/>
<path d="M1434 97C1358.71 96.1658 1298.03 86.9422 1220.45 88.2035C1159.59 89.1933 1100.11 93.0261 1038.59 92.8017C986.154 92.6099 934.451 89.0377 882.699 87.6262C827.539 86.1224 774.297 86.468 722.175 90.2845C660.859 94.7778 607.548 92.4217 548.48 87.6805C494.519 83.3519 450.061 78.4243 388.955 80.9614C324.332 83.6451 267.273 91.5169 201.85 93.3699C133.32 95.3116 60.6524 85.67 -5.00014 91.1984" stroke="url(#paint68_linear_0_3242)" stroke-width="0.3" stroke-miterlimit="10"/>
<defs>
<linearGradient id="paint0_linear_0_3242" x1="-1.03463e+06" y1="-502.12" x2="-1.03463e+06" y2="-489.53" gradientUnits="userSpaceOnUse">
<stop stop-color="#592CB8"/>
<stop offset="1" stop-color="#2C66B8"/>
</linearGradient>
<linearGradient id="paint1_linear_0_3242" x1="-1.0346e+06" y1="-566.408" x2="-1.0346e+06" y2="-552.114" gradientUnits="userSpaceOnUse">
<stop stop-color="#592CB8"/>
<stop offset="1" stop-color="#2C66B8"/>
</linearGradient>
<linearGradient id="paint2_linear_0_3242" x1="-1.03463e+06" y1="-1046.7" x2="-1.03463e+06" y2="-1020.3" gradientUnits="userSpaceOnUse">
<stop stop-color="#592CB8"/>
<stop offset="1" stop-color="#2C66B8"/>
</linearGradient>
<linearGradient id="paint3_linear_0_3242" x1="-1.03463e+06" y1="-1756.6" x2="-1.03463e+06" y2="-1712.35" gradientUnits="userSpaceOnUse">
<stop stop-color="#592CB8"/>
<stop offset="1" stop-color="#2C66B8"/>
</linearGradient>
<linearGradient id="paint4_linear_0_3242" x1="-1.03463e+06" y1="-2928.87" x2="-1.03463e+06" y2="-2855.19" gradientUnits="userSpaceOnUse">
<stop stop-color="#592CB8"/>
<stop offset="1" stop-color="#2C66B8"/>
</linearGradient>
<linearGradient id="paint5_linear_0_3242" x1="-1.03463e+06" y1="-4216.35" x2="-1.03463e+06" y2="-4110.36" gradientUnits="userSpaceOnUse">
<stop stop-color="#592CB8"/>
<stop offset="1" stop-color="#2C66B8"/>
</linearGradient>
<linearGradient id="paint6_linear_0_3242" x1="-1.03463e+06" y1="-5781.34" x2="-1.03463e+06" y2="-5636.08" gradientUnits="userSpaceOnUse">
<stop stop-color="#592CB8"/>
<stop offset="1" stop-color="#2C66B8"/>
</linearGradient>
<linearGradient id="paint7_linear_0_3242" x1="-1.03462e+06" y1="-7426.07" x2="-1.03462e+06" y2="-7239.55" gradientUnits="userSpaceOnUse">
<stop stop-color="#592CB8"/>
<stop offset="1" stop-color="#2C66B8"/>
</linearGradient>
<linearGradient id="paint8_linear_0_3242" x1="-1.03464e+06" y1="-9075.44" x2="-1.03464e+06" y2="-8847.55" gradientUnits="userSpaceOnUse">
<stop stop-color="#592CB8"/>
<stop offset="1" stop-color="#2C66B8"/>
</linearGradient>
<linearGradient id="paint9_linear_0_3242" x1="-1.03461e+06" y1="-10643.6" x2="-1.03461e+06" y2="-10376.3" gradientUnits="userSpaceOnUse">
<stop stop-color="#592CB8"/>
<stop offset="1" stop-color="#2C66B8"/>
</linearGradient>
<linearGradient id="paint10_linear_0_3242" x1="-1.03463e+06" y1="-12199.6" x2="-1.03463e+06" y2="-11893.3" gradientUnits="userSpaceOnUse">
<stop stop-color="#592CB8"/>
<stop offset="1" stop-color="#2C66B8"/>
</linearGradient>
<linearGradient id="paint11_linear_0_3242" x1="-1.03463e+06" y1="-13396" x2="-1.03463e+06" y2="-13059.8" gradientUnits="userSpaceOnUse">
<stop stop-color="#592CB8"/>
<stop offset="1" stop-color="#2C66B8"/>
</linearGradient>
<linearGradient id="paint12_linear_0_3242" x1="-1.03463e+06" y1="-14284.4" x2="-1.03463e+06" y2="-13925.8" gradientUnits="userSpaceOnUse">
<stop stop-color="#592CB8"/>
<stop offset="1" stop-color="#2C66B8"/>
</linearGradient>
<linearGradient id="paint13_linear_0_3242" x1="-1.03466e+06" y1="-14762.2" x2="-1.03466e+06" y2="-14391.6" gradientUnits="userSpaceOnUse">
<stop stop-color="#592CB8"/>
<stop offset="1" stop-color="#2C66B8"/>
</linearGradient>
<linearGradient id="paint14_linear_0_3242" x1="-1.03463e+06" y1="-14979.1" x2="-1.03463e+06" y2="-14603" gradientUnits="userSpaceOnUse">
<stop stop-color="#592CB8"/>
<stop offset="1" stop-color="#2C66B8"/>
</linearGradient>
<linearGradient id="paint15_linear_0_3242" x1="-1.03461e+06" y1="-15198.9" x2="-1.03461e+06" y2="-14817.2" gradientUnits="userSpaceOnUse">
<stop stop-color="#592CB8"/>
<stop offset="1" stop-color="#2C66B8"/>
</linearGradient>
<linearGradient id="paint16_linear_0_3242" x1="-1.03462e+06" y1="-15326.1" x2="-1.03462e+06" y2="-14941.2" gradientUnits="userSpaceOnUse">
<stop stop-color="#592CB8"/>
<stop offset="1" stop-color="#2C66B8"/>
</linearGradient>
<linearGradient id="paint17_linear_0_3242" x1="-1.03465e+06" y1="-15367.6" x2="-1.03465e+06" y2="-14981.6" gradientUnits="userSpaceOnUse">
<stop stop-color="#592CB8"/>
<stop offset="1" stop-color="#2C66B8"/>
</linearGradient>
<linearGradient id="paint18_linear_0_3242" x1="-1.03463e+06" y1="-15333.8" x2="-1.03463e+06" y2="-14948.6" gradientUnits="userSpaceOnUse">
<stop stop-color="#592CB8"/>
<stop offset="1" stop-color="#2C66B8"/>
</linearGradient>
<linearGradient id="paint19_linear_0_3242" x1="-1.03463e+06" y1="-15232" x2="-1.03463e+06" y2="-14849.3" gradientUnits="userSpaceOnUse">
<stop stop-color="#592CB8"/>
<stop offset="1" stop-color="#2C66B8"/>
</linearGradient>
<linearGradient id="paint20_linear_0_3242" x1="-1.03464e+06" y1="-14989.5" x2="-1.03464e+06" y2="-14612.8" gradientUnits="userSpaceOnUse">
<stop stop-color="#592CB8"/>
<stop offset="1" stop-color="#2C66B8"/>
</linearGradient>
<linearGradient id="paint21_linear_0_3242" x1="-1.03465e+06" y1="-14829.2" x2="-1.03465e+06" y2="-14456.5" gradientUnits="userSpaceOnUse">
<stop stop-color="#592CB8"/>
<stop offset="1" stop-color="#2C66B8"/>
</linearGradient>
<linearGradient id="paint22_linear_0_3242" x1="-1.0346e+06" y1="-14634" x2="-1.0346e+06" y2="-14266.2" gradientUnits="userSpaceOnUse">
<stop stop-color="#592CB8"/>
<stop offset="1" stop-color="#2C66B8"/>
</linearGradient>
<linearGradient id="paint23_linear_0_3242" x1="-1.03463e+06" y1="-14426.3" x2="-1.03463e+06" y2="-14063.6" gradientUnits="userSpaceOnUse">
<stop stop-color="#592CB8"/>
<stop offset="1" stop-color="#2C66B8"/>
</linearGradient>
<linearGradient id="paint24_linear_0_3242" x1="-1.03466e+06" y1="-14206.1" x2="-1.03466e+06" y2="-13848.9" gradientUnits="userSpaceOnUse">
<stop stop-color="#592CB8"/>
<stop offset="1" stop-color="#2C66B8"/>
</linearGradient>
<linearGradient id="paint25_linear_0_3242" x1="-1.03462e+06" y1="-13982.8" x2="-1.03462e+06" y2="-13631.2" gradientUnits="userSpaceOnUse">
<stop stop-color="#592CB8"/>
<stop offset="1" stop-color="#2C66B8"/>
</linearGradient>
<linearGradient id="paint26_linear_0_3242" x1="-1.03463e+06" y1="-13690.1" x2="-1.03463e+06" y2="-13345.8" gradientUnits="userSpaceOnUse">
<stop stop-color="#592CB8"/>
<stop offset="1" stop-color="#2C66B8"/>
</linearGradient>
<linearGradient id="paint27_linear_0_3242" x1="-1.0346e+06" y1="-13482.2" x2="-1.0346e+06" y2="-13143.1" gradientUnits="userSpaceOnUse">
<stop stop-color="#592CB8"/>
<stop offset="1" stop-color="#2C66B8"/>
</linearGradient>
<linearGradient id="paint28_linear_0_3242" x1="-1.03461e+06" y1="-13297.5" x2="-1.03461e+06" y2="-12962.9" gradientUnits="userSpaceOnUse">
<stop stop-color="#592CB8"/>
<stop offset="1" stop-color="#2C66B8"/>
</linearGradient>
<linearGradient id="paint29_linear_0_3242" x1="-1.0346e+06" y1="-13153.5" x2="-1.0346e+06" y2="-12822.5" gradientUnits="userSpaceOnUse">
<stop stop-color="#592CB8"/>
<stop offset="1" stop-color="#2C66B8"/>
</linearGradient>
<linearGradient id="paint30_linear_0_3242" x1="-1.03466e+06" y1="-13030.1" x2="-1.03466e+06" y2="-12702.2" gradientUnits="userSpaceOnUse">
<stop stop-color="#592CB8"/>
<stop offset="1" stop-color="#2C66B8"/>
</linearGradient>
<linearGradient id="paint31_linear_0_3242" x1="-1.03463e+06" y1="-12971.8" x2="-1.03463e+06" y2="-12645.3" gradientUnits="userSpaceOnUse">
<stop stop-color="#592CB8"/>
<stop offset="1" stop-color="#2C66B8"/>
</linearGradient>
<linearGradient id="paint32_linear_0_3242" x1="-1.03463e+06" y1="-12946.8" x2="-1.03463e+06" y2="-12620.9" gradientUnits="userSpaceOnUse">
<stop stop-color="#592CB8"/>
<stop offset="1" stop-color="#2C66B8"/>
</linearGradient>
<linearGradient id="paint33_linear_0_3242" x1="-1.03465e+06" y1="-12868.1" x2="-1.03465e+06" y2="-12544.1" gradientUnits="userSpaceOnUse">
<stop stop-color="#592CB8"/>
<stop offset="1" stop-color="#2C66B8"/>
</linearGradient>
<linearGradient id="paint34_linear_0_3242" x1="-1.03463e+06" y1="-12746.8" x2="-1.03463e+06" y2="-12425.8" gradientUnits="userSpaceOnUse">
<stop stop-color="#592CB8"/>
<stop offset="1" stop-color="#2C66B8"/>
</linearGradient>
<linearGradient id="paint35_linear_0_3242" x1="-1.03465e+06" y1="-12567.3" x2="-1.03465e+06" y2="-12250.8" gradientUnits="userSpaceOnUse">
<stop stop-color="#592CB8"/>
<stop offset="1" stop-color="#2C66B8"/>
</linearGradient>
<linearGradient id="paint36_linear_0_3242" x1="-1.03463e+06" y1="-12351.1" x2="-1.03463e+06" y2="-12040" gradientUnits="userSpaceOnUse">
<stop stop-color="#592CB8"/>
<stop offset="1" stop-color="#2C66B8"/>
</linearGradient>
<linearGradient id="paint37_linear_0_3242" x1="-1.03465e+06" y1="-12091.6" x2="-1.03465e+06" y2="-11786.9" gradientUnits="userSpaceOnUse">
<stop stop-color="#592CB8"/>
<stop offset="1" stop-color="#2C66B8"/>
</linearGradient>
<linearGradient id="paint38_linear_0_3242" x1="-1.03462e+06" y1="-11801.4" x2="-1.03462e+06" y2="-11504" gradientUnits="userSpaceOnUse">
<stop stop-color="#592CB8"/>
<stop offset="1" stop-color="#2C66B8"/>
</linearGradient>
<linearGradient id="paint39_linear_0_3242" x1="-1.03463e+06" y1="-11472.1" x2="-1.03463e+06" y2="-11182.9" gradientUnits="userSpaceOnUse">
<stop stop-color="#592CB8"/>
<stop offset="1" stop-color="#2C66B8"/>
</linearGradient>
<linearGradient id="paint40_linear_0_3242" x1="-1.03462e+06" y1="-11106" x2="-1.03462e+06" y2="-10826" gradientUnits="userSpaceOnUse">
<stop stop-color="#592CB8"/>
<stop offset="1" stop-color="#2C66B8"/>
</linearGradient>
<linearGradient id="paint41_linear_0_3242" x1="-1.03463e+06" y1="-10728.1" x2="-1.03463e+06" y2="-10457.5" gradientUnits="userSpaceOnUse">
<stop stop-color="#592CB8"/>
<stop offset="1" stop-color="#2C66B8"/>
</linearGradient>
<linearGradient id="paint42_linear_0_3242" x1="-1.03463e+06" y1="-10319.1" x2="-1.03463e+06" y2="-10058.7" gradientUnits="userSpaceOnUse">
<stop stop-color="#592CB8"/>
<stop offset="1" stop-color="#2C66B8"/>
</linearGradient>
<linearGradient id="paint43_linear_0_3242" x1="-1.03463e+06" y1="-9906.8" x2="-1.03463e+06" y2="-9656.69" gradientUnits="userSpaceOnUse">
<stop stop-color="#592CB8"/>
<stop offset="1" stop-color="#2C66B8"/>
</linearGradient>
<linearGradient id="paint44_linear_0_3242" x1="-1.03463e+06" y1="-9472.55" x2="-1.03463e+06" y2="-9233.29" gradientUnits="userSpaceOnUse">
<stop stop-color="#592CB8"/>
<stop offset="1" stop-color="#2C66B8"/>
</linearGradient>
<linearGradient id="paint45_linear_0_3242" x1="-1.03463e+06" y1="-9040.07" x2="-1.03463e+06" y2="-8811.62" gradientUnits="userSpaceOnUse">
<stop stop-color="#592CB8"/>
<stop offset="1" stop-color="#2C66B8"/>
</linearGradient>
<linearGradient id="paint46_linear_0_3242" x1="-1.03458e+06" y1="-8616.53" x2="-1.03458e+06" y2="-8398.67" gradientUnits="userSpaceOnUse">
<stop stop-color="#592CB8"/>
<stop offset="1" stop-color="#2C66B8"/>
</linearGradient>
<linearGradient id="paint47_linear_0_3242" x1="-1.03467e+06" y1="-8162.56" x2="-1.03467e+06" y2="-7956.05" gradientUnits="userSpaceOnUse">
<stop stop-color="#592CB8"/>
<stop offset="1" stop-color="#2C66B8"/>
</linearGradient>
<linearGradient id="paint48_linear_0_3242" x1="-1.03463e+06" y1="-7883.22" x2="-1.03463e+06" y2="-7683.69" gradientUnits="userSpaceOnUse">
<stop stop-color="#592CB8"/>
<stop offset="1" stop-color="#2C66B8"/>
</linearGradient>
<linearGradient id="paint49_linear_0_3242" x1="-1.03463e+06" y1="-7538.42" x2="-1.03463e+06" y2="-7347.51" gradientUnits="userSpaceOnUse">
<stop stop-color="#592CB8"/>
<stop offset="1" stop-color="#2C66B8"/>
</linearGradient>
<linearGradient id="paint50_linear_0_3242" x1="-1.03465e+06" y1="-7264.42" x2="-1.03465e+06" y2="-7080.36" gradientUnits="userSpaceOnUse">
<stop stop-color="#592CB8"/>
<stop offset="1" stop-color="#2C66B8"/>
</linearGradient>
<linearGradient id="paint51_linear_0_3242" x1="-1.03463e+06" y1="-7042.9" x2="-1.03463e+06" y2="-6864.37" gradientUnits="userSpaceOnUse">
<stop stop-color="#592CB8"/>
<stop offset="1" stop-color="#2C66B8"/>
</linearGradient>
<linearGradient id="paint52_linear_0_3242" x1="-1.0346e+06" y1="-6858.8" x2="-1.0346e+06" y2="-6684.87" gradientUnits="userSpaceOnUse">
<stop stop-color="#592CB8"/>
<stop offset="1" stop-color="#2C66B8"/>
</linearGradient>
<linearGradient id="paint53_linear_0_3242" x1="-1.03461e+06" y1="-6702.19" x2="-1.03461e+06" y2="-6532.18" gradientUnits="userSpaceOnUse">
<stop stop-color="#592CB8"/>
<stop offset="1" stop-color="#2C66B8"/>
</linearGradient>
<linearGradient id="paint54_linear_0_3242" x1="-1.0346e+06" y1="-6574.86" x2="-1.0346e+06" y2="-6408.02" gradientUnits="userSpaceOnUse">
<stop stop-color="#592CB8"/>
<stop offset="1" stop-color="#2C66B8"/>
</linearGradient>
<linearGradient id="paint55_linear_0_3242" x1="-1.03462e+06" y1="-6580.36" x2="-1.03462e+06" y2="-6413.38" gradientUnits="userSpaceOnUse">
<stop stop-color="#592CB8"/>
<stop offset="1" stop-color="#2C66B8"/>
</linearGradient>
<linearGradient id="paint56_linear_0_3242" x1="-1.03466e+06" y1="-6757.35" x2="-1.03466e+06" y2="-6585.93" gradientUnits="userSpaceOnUse">
<stop stop-color="#592CB8"/>
<stop offset="1" stop-color="#2C66B8"/>
</linearGradient>
<linearGradient id="paint57_linear_0_3242" x1="-1.03464e+06" y1="-6940.47" x2="-1.03464e+06" y2="-6764.45" gradientUnits="userSpaceOnUse">
<stop stop-color="#592CB8"/>
<stop offset="1" stop-color="#2C66B8"/>
</linearGradient>
<linearGradient id="paint58_linear_0_3242" x1="-1.03463e+06" y1="-7126.58" x2="-1.03463e+06" y2="-6945.89" gradientUnits="userSpaceOnUse">
<stop stop-color="#592CB8"/>
<stop offset="1" stop-color="#2C66B8"/>
</linearGradient>
<linearGradient id="paint59_linear_0_3242" x1="-1.0346e+06" y1="-7317.82" x2="-1.0346e+06" y2="-7132.33" gradientUnits="userSpaceOnUse">
<stop stop-color="#592CB8"/>
<stop offset="1" stop-color="#2C66B8"/>
</linearGradient>
<linearGradient id="paint60_linear_0_3242" x1="-1.0346e+06" y1="-7494.97" x2="-1.0346e+06" y2="-7305.03" gradientUnits="userSpaceOnUse">
<stop stop-color="#592CB8"/>
<stop offset="1" stop-color="#2C66B8"/>
</linearGradient>
<linearGradient id="paint61_linear_0_3242" x1="-1.03462e+06" y1="-7668.05" x2="-1.03462e+06" y2="-7473.78" gradientUnits="userSpaceOnUse">
<stop stop-color="#592CB8"/>
<stop offset="1" stop-color="#2C66B8"/>
</linearGradient>
<linearGradient id="paint62_linear_0_3242" x1="-1.03462e+06" y1="-7827.62" x2="-1.03462e+06" y2="-7629.34" gradientUnits="userSpaceOnUse">
<stop stop-color="#592CB8"/>
<stop offset="1" stop-color="#2C66B8"/>
</linearGradient>
<linearGradient id="paint63_linear_0_3242" x1="-1.03463e+06" y1="-7973.99" x2="-1.03463e+06" y2="-7772.04" gradientUnits="userSpaceOnUse">
<stop stop-color="#592CB8"/>
<stop offset="1" stop-color="#2C66B8"/>
</linearGradient>
<linearGradient id="paint64_linear_0_3242" x1="-1.03462e+06" y1="-8114.16" x2="-1.03462e+06" y2="-7908.7" gradientUnits="userSpaceOnUse">
<stop stop-color="#592CB8"/>
<stop offset="1" stop-color="#2C66B8"/>
</linearGradient>
<linearGradient id="paint65_linear_0_3242" x1="-1.03463e+06" y1="-8219.69" x2="-1.03463e+06" y2="-8011.58" gradientUnits="userSpaceOnUse">
<stop stop-color="#592CB8"/>
<stop offset="1" stop-color="#2C66B8"/>
</linearGradient>
<linearGradient id="paint66_linear_0_3242" x1="-1.03463e+06" y1="-8311.24" x2="-1.03463e+06" y2="-8100.84" gradientUnits="userSpaceOnUse">
<stop stop-color="#592CB8"/>
<stop offset="1" stop-color="#2C66B8"/>
</linearGradient>
<linearGradient id="paint67_linear_0_3242" x1="-1.0346e+06" y1="-8367.19" x2="-1.0346e+06" y2="-8155.39" gradientUnits="userSpaceOnUse">
<stop stop-color="#592CB8"/>
<stop offset="1" stop-color="#2C66B8"/>
</linearGradient>
<linearGradient id="paint68_linear_0_3242" x1="-1.03466e+06" y1="-8321.02" x2="-1.03466e+06" y2="-8110.37" gradientUnits="userSpaceOnUse">
<stop stop-color="#592CB8"/>
<stop offset="1" stop-color="#2C66B8"/>
</linearGradient>
</defs>
</svg>
