<svg width="601" height="525" viewBox="0 0 601 525" fill="none" xmlns="http://www.w3.org/2000/svg">
<rect x="125" width="2" height="525" fill="url(#paint0_linear_0_940)"/>
<rect x="74" width="2" height="525" fill="url(#paint1_linear_0_940)"/>
<rect x="175" width="2" height="525" fill="url(#paint2_linear_0_940)"/>
<rect x="225" width="2" height="525" fill="url(#paint3_linear_0_940)"/>
<rect x="275" width="2" height="525" fill="url(#paint4_linear_0_940)"/>
<rect x="325" width="2" height="525" fill="url(#paint5_linear_0_940)"/>
<rect x="375" width="2" height="525" fill="url(#paint6_linear_0_940)"/>
<rect x="425" width="2" height="525" fill="url(#paint7_linear_0_940)"/>
<rect x="475" width="2" height="525" fill="url(#paint8_linear_0_940)"/>
<rect x="525" width="2" height="525" fill="url(#paint9_linear_0_940)"/>
<rect x="601" y="87" width="2" height="601" transform="rotate(90 601 87)" fill="url(#paint10_linear_0_940)"/>
<rect x="601" y="36" width="2" height="601" transform="rotate(90 601 36)" fill="url(#paint11_linear_0_940)"/>
<rect x="601" y="137" width="2" height="601" transform="rotate(90 601 137)" fill="url(#paint12_linear_0_940)"/>
<rect x="601" y="187" width="2" height="601" transform="rotate(90 601 187)" fill="url(#paint13_linear_0_940)"/>
<rect x="601" y="237" width="2" height="601" transform="rotate(90 601 237)" fill="url(#paint14_linear_0_940)"/>
<rect x="601" y="287" width="2" height="601" transform="rotate(90 601 287)" fill="url(#paint15_linear_0_940)"/>
<rect x="601" y="337" width="2" height="601" transform="rotate(90 601 337)" fill="url(#paint16_linear_0_940)"/>
<rect x="601" y="387" width="2" height="601" transform="rotate(90 601 387)" fill="url(#paint17_linear_0_940)"/>
<rect x="601" y="437" width="2" height="601" transform="rotate(90 601 437)" fill="url(#paint18_linear_0_940)"/>
<rect x="601" y="487" width="2" height="601" transform="rotate(90 601 487)" fill="url(#paint19_linear_0_940)"/>
<g filter="url(#filter0_b_0_940)">
<rect x="88.0021" y="58" width="179.002" height="179.002" rx="3" fill="white" fill-opacity="0.05"/>
</g>
<rect x="108.966" y="79.7705" width="66.1179" height="12.0947" rx="3" fill="white" fill-opacity="0.05"/>
<rect x="108.966" y="107.185" width="21.5622" height="12.0947" rx="3" fill="white" fill-opacity="0.05"/>
<rect x="108.966" y="131.375" width="21.5622" height="12.0947" rx="3" fill="white" fill-opacity="0.05"/>
<rect x="108.966" y="155.564" width="21.5622" height="12.0947" rx="3" fill="white" fill-opacity="0.05"/>
<rect x="108.966" y="179.754" width="21.5622" height="12.0947" rx="3" fill="white" fill-opacity="0.05"/>
<rect x="108.966" y="203.943" width="21.5622" height="12.0947" rx="3" fill="white" fill-opacity="0.05"/>
<rect x="145.93" y="107.185" width="48.5149" height="12.0947" rx="3" fill="white" fill-opacity="0.05"/>
<rect x="146.057" y="131.375" width="54.8295" height="12.0947" rx="3" fill="white" fill-opacity="0.05"/>
<rect x="146.057" y="155.564" width="35.4779" height="12.0947" rx="3" fill="white" fill-opacity="0.05"/>
<rect x="146.057" y="179.754" width="54.8295" height="12.0947" rx="3" fill="white" fill-opacity="0.05"/>
<rect x="145.93" y="203.943" width="48.5149" height="12.0947" rx="3" fill="white" fill-opacity="0.05"/>
<rect x="209.846" y="107.185" width="36.1936" height="12.0947" rx="3" fill="white" fill-opacity="0.05"/>
<rect x="216.206" y="131.375" width="29.8337" height="12.0947" rx="3" fill="white" fill-opacity="0.05"/>
<rect x="196.855" y="155.564" width="49.1853" height="12.0947" rx="3" fill="white" fill-opacity="0.05"/>
<rect x="216.206" y="179.754" width="29.8337" height="12.0947" rx="3" fill="white" fill-opacity="0.05"/>
<rect x="209.846" y="203.943" width="36.1936" height="12.0947" rx="3" fill="white" fill-opacity="0.05"/>
<g filter="url(#filter1_b_0_940)">
<rect x="104.935" y="292.638" width="179.002" height="151.587" rx="3" fill="white" fill-opacity="0.05"/>
</g>
<rect x="125.899" y="314.408" width="89.5011" height="12.0947" rx="3" fill="white" fill-opacity="0.05"/>
<rect x="125.899" y="341.823" width="21.5622" height="12.0947" rx="3" fill="white" fill-opacity="0.05"/>
<rect x="125.899" y="366.013" width="21.5622" height="12.0947" rx="3" fill="white" fill-opacity="0.05"/>
<rect x="125.899" y="390.202" width="21.5622" height="12.0947" rx="3" fill="white" fill-opacity="0.05"/>
<rect x="125.899" y="414.392" width="21.5622" height="12.0947" rx="3" fill="white" fill-opacity="0.05"/>
<rect x="162.863" y="341.823" width="48.5149" height="12.0947" rx="3" fill="white" fill-opacity="0.05"/>
<rect x="162.99" y="366.013" width="54.8295" height="12.0947" rx="3" fill="white" fill-opacity="0.05"/>
<rect x="162.99" y="390.202" width="35.4779" height="12.0947" rx="3" fill="white" fill-opacity="0.05"/>
<rect x="162.99" y="414.392" width="54.8295" height="12.0947" rx="3" fill="white" fill-opacity="0.05"/>
<rect x="226.779" y="341.823" width="36.1936" height="12.0947" rx="3" fill="white" fill-opacity="0.05"/>
<rect x="233.139" y="366.013" width="29.8337" height="12.0947" rx="3" fill="white" fill-opacity="0.05"/>
<rect x="213.787" y="390.202" width="49.1853" height="12.0947" rx="3" fill="white" fill-opacity="0.05"/>
<rect x="233.139" y="414.392" width="29.8337" height="12.0947" rx="3" fill="white" fill-opacity="0.05"/>
<g filter="url(#filter2_b_0_940)">
<rect x="316.996" y="169" width="179.002" height="226.575" rx="3" fill="white" fill-opacity="0.05"/>
</g>
<rect x="337.96" y="190.771" width="45.1537" height="12.0947" rx="3" fill="white" fill-opacity="0.05"/>
<rect x="337.96" y="266.564" width="21.5622" height="12.0947" rx="3" fill="white" fill-opacity="0.05"/>
<rect x="374.924" y="266.564" width="48.5149" height="12.0947" rx="3" fill="white" fill-opacity="0.05"/>
<rect x="438.84" y="266.564" width="36.1936" height="12.0947" rx="3" fill="white" fill-opacity="0.05"/>
<rect x="337.96" y="290.754" width="21.5622" height="12.0947" rx="3" fill="white" fill-opacity="0.05"/>
<rect x="375.051" y="290.754" width="54.8295" height="12.0947" rx="3" fill="white" fill-opacity="0.05"/>
<rect x="445.2" y="290.754" width="29.8337" height="12.0947" rx="3" fill="white" fill-opacity="0.05"/>
<rect x="337.96" y="339.133" width="21.5622" height="12.0947" rx="3" fill="white" fill-opacity="0.05"/>
<rect x="375.051" y="339.133" width="54.8295" height="12.0947" rx="3" fill="white" fill-opacity="0.05"/>
<rect x="445.2" y="339.133" width="29.8337" height="12.0947" rx="3" fill="white" fill-opacity="0.05"/>
<rect x="337.96" y="314.943" width="21.5622" height="12.0947" rx="3" fill="white" fill-opacity="0.05"/>
<rect x="375.051" y="314.943" width="35.4779" height="12.0947" rx="3" fill="white" fill-opacity="0.05"/>
<rect x="425.849" y="314.943" width="49.1853" height="12.0947" rx="3" fill="white" fill-opacity="0.05"/>
<rect x="337.96" y="242.375" width="21.5622" height="12.0947" rx="3" fill="white" fill-opacity="0.05"/>
<rect x="375.051" y="242.375" width="54.8295" height="12.0947" rx="3" fill="white" fill-opacity="0.05"/>
<rect x="445.2" y="242.375" width="29.8337" height="12.0947" rx="3" fill="white" fill-opacity="0.05"/>
<rect x="337.96" y="218.185" width="21.5622" height="12.0947" rx="3" fill="white" fill-opacity="0.05"/>
<rect x="374.924" y="218.185" width="48.5149" height="12.0947" rx="3" fill="white" fill-opacity="0.05"/>
<rect x="438.84" y="218.185" width="36.1936" height="12.0947" rx="3" fill="white" fill-opacity="0.05"/>
<rect x="337.96" y="363.322" width="21.5622" height="12.0947" rx="3" fill="white" fill-opacity="0.05"/>
<rect x="374.924" y="363.322" width="48.5149" height="12.0947" rx="3" fill="white" fill-opacity="0.05"/>
<rect x="438.84" y="363.322" width="36.1936" height="12.0947" rx="3" fill="white" fill-opacity="0.05"/>
<path d="M267.004 143.001C264.504 143.001 262.504 145.001 262.504 147.501C262.504 150.001 264.504 152.001 267.004 152.001C269.504 152.001 271.504 150.001 271.504 147.501C271.504 145.001 269.504 143.001 267.004 143.001Z" fill="#6016FC"/>
<path d="M264.004 147.501C264.004 145.829 265.333 144.501 267.004 144.501V141.501C263.676 141.501 261.004 144.173 261.004 147.501H264.004ZM267.004 144.501C268.676 144.501 270.004 145.829 270.004 147.501H273.004C273.004 144.173 270.333 141.501 267.004 141.501V144.501ZM270.004 147.501C270.004 149.173 268.676 150.501 267.004 150.501V153.501C270.333 153.501 273.004 150.829 273.004 147.501H270.004ZM267.004 150.501C265.333 150.501 264.004 149.173 264.004 147.501H261.004C261.004 150.829 263.676 153.501 267.004 153.501V150.501ZM271.504 149.001H386.497V146.001H271.504V149.001ZM404.997 167.501V169H407.997V167.501H404.997ZM386.497 149.001C396.714 149.001 404.997 157.284 404.997 167.501H407.997C407.997 155.627 398.371 146.001 386.497 146.001V149.001Z" fill="#222234"/>
<path d="M283.937 363.932C281.437 363.932 279.437 365.932 279.437 368.432C279.437 370.932 281.437 372.932 283.937 372.932C286.437 372.932 288.437 370.932 288.437 368.432C288.437 365.932 286.437 363.932 283.937 363.932Z" fill="#6016FC"/>
<path d="M280.937 368.432C280.937 366.76 282.265 365.432 283.937 365.432V362.432C280.608 362.432 277.937 365.103 277.937 368.432H280.937ZM283.937 365.432C285.608 365.432 286.937 366.76 286.937 368.432H289.937C289.937 365.103 287.265 362.432 283.937 362.432V365.432ZM286.937 368.432C286.937 370.103 285.608 371.432 283.937 371.432V374.432C287.265 374.432 289.937 371.76 289.937 368.432H286.937ZM283.937 371.432C282.265 371.432 280.937 370.103 280.937 368.432H277.937C277.937 371.76 280.608 374.432 283.937 374.432V371.432ZM301.966 356.402V298.817H298.966V356.402H301.966ZM301.966 298.817C301.966 290.516 308.695 283.787 316.996 283.787V280.787C307.038 280.787 298.966 288.859 298.966 298.817H301.966ZM288.437 369.932C295.909 369.932 301.966 363.874 301.966 356.402H298.966C298.966 362.217 294.252 366.932 288.437 366.932V369.932Z" fill="#222234"/>
<defs>
<filter id="filter0_b_0_940" x="14.0021" y="-16" width="327.002" height="327.002" filterUnits="userSpaceOnUse" color-interpolation-filters="sRGB">
<feFlood flood-opacity="0" result="BackgroundImageFix"/>
<feGaussianBlur in="BackgroundImage" stdDeviation="37"/>
<feComposite in2="SourceAlpha" operator="in" result="effect1_backgroundBlur_0_940"/>
<feBlend mode="normal" in="SourceGraphic" in2="effect1_backgroundBlur_0_940" result="shape"/>
</filter>
<filter id="filter1_b_0_940" x="30.9348" y="218.638" width="327.002" height="299.587" filterUnits="userSpaceOnUse" color-interpolation-filters="sRGB">
<feFlood flood-opacity="0" result="BackgroundImageFix"/>
<feGaussianBlur in="BackgroundImage" stdDeviation="37"/>
<feComposite in2="SourceAlpha" operator="in" result="effect1_backgroundBlur_0_940"/>
<feBlend mode="normal" in="SourceGraphic" in2="effect1_backgroundBlur_0_940" result="shape"/>
</filter>
<filter id="filter2_b_0_940" x="242.996" y="95" width="327.002" height="374.575" filterUnits="userSpaceOnUse" color-interpolation-filters="sRGB">
<feFlood flood-opacity="0" result="BackgroundImageFix"/>
<feGaussianBlur in="BackgroundImage" stdDeviation="37"/>
<feComposite in2="SourceAlpha" operator="in" result="effect1_backgroundBlur_0_940"/>
<feBlend mode="normal" in="SourceGraphic" in2="effect1_backgroundBlur_0_940" result="shape"/>
</filter>
<linearGradient id="paint0_linear_0_940" x1="126" y1="0" x2="126" y2="525" gradientUnits="userSpaceOnUse">
<stop stop-color="white" stop-opacity="0"/>
<stop offset="0.479167" stop-color="white" stop-opacity="0.02"/>
<stop offset="0.994792" stop-color="white" stop-opacity="0"/>
</linearGradient>
<linearGradient id="paint1_linear_0_940" x1="75" y1="0" x2="75" y2="525" gradientUnits="userSpaceOnUse">
<stop stop-color="white" stop-opacity="0"/>
<stop offset="0.479167" stop-color="white" stop-opacity="0.02"/>
<stop offset="0.994792" stop-color="white" stop-opacity="0"/>
</linearGradient>
<linearGradient id="paint2_linear_0_940" x1="176" y1="0" x2="176" y2="525" gradientUnits="userSpaceOnUse">
<stop stop-color="white" stop-opacity="0"/>
<stop offset="0.479167" stop-color="white" stop-opacity="0.02"/>
<stop offset="0.994792" stop-color="white" stop-opacity="0"/>
</linearGradient>
<linearGradient id="paint3_linear_0_940" x1="226" y1="0" x2="226" y2="525" gradientUnits="userSpaceOnUse">
<stop stop-color="white" stop-opacity="0"/>
<stop offset="0.479167" stop-color="white" stop-opacity="0.02"/>
<stop offset="0.994792" stop-color="white" stop-opacity="0"/>
</linearGradient>
<linearGradient id="paint4_linear_0_940" x1="276" y1="0" x2="276" y2="525" gradientUnits="userSpaceOnUse">
<stop stop-color="white" stop-opacity="0"/>
<stop offset="0.479167" stop-color="white" stop-opacity="0.02"/>
<stop offset="0.994792" stop-color="white" stop-opacity="0"/>
</linearGradient>
<linearGradient id="paint5_linear_0_940" x1="326" y1="0" x2="326" y2="525" gradientUnits="userSpaceOnUse">
<stop stop-color="white" stop-opacity="0"/>
<stop offset="0.479167" stop-color="white" stop-opacity="0.02"/>
<stop offset="0.994792" stop-color="white" stop-opacity="0"/>
</linearGradient>
<linearGradient id="paint6_linear_0_940" x1="376" y1="0" x2="376" y2="525" gradientUnits="userSpaceOnUse">
<stop stop-color="white" stop-opacity="0"/>
<stop offset="0.479167" stop-color="white" stop-opacity="0.02"/>
<stop offset="0.994792" stop-color="white" stop-opacity="0"/>
</linearGradient>
<linearGradient id="paint7_linear_0_940" x1="426" y1="0" x2="426" y2="525" gradientUnits="userSpaceOnUse">
<stop stop-color="white" stop-opacity="0"/>
<stop offset="0.479167" stop-color="white" stop-opacity="0.02"/>
<stop offset="0.994792" stop-color="white" stop-opacity="0"/>
</linearGradient>
<linearGradient id="paint8_linear_0_940" x1="476" y1="0" x2="476" y2="525" gradientUnits="userSpaceOnUse">
<stop stop-color="white" stop-opacity="0"/>
<stop offset="0.479167" stop-color="white" stop-opacity="0.02"/>
<stop offset="0.994792" stop-color="white" stop-opacity="0"/>
</linearGradient>
<linearGradient id="paint9_linear_0_940" x1="526" y1="0" x2="526" y2="525" gradientUnits="userSpaceOnUse">
<stop stop-color="white" stop-opacity="0"/>
<stop offset="0.479167" stop-color="white" stop-opacity="0.02"/>
<stop offset="0.994792" stop-color="white" stop-opacity="0"/>
</linearGradient>
<linearGradient id="paint10_linear_0_940" x1="602" y1="87" x2="602" y2="688" gradientUnits="userSpaceOnUse">
<stop stop-color="white" stop-opacity="0"/>
<stop offset="0.479167" stop-color="white" stop-opacity="0.02"/>
<stop offset="0.994792" stop-color="white" stop-opacity="0"/>
</linearGradient>
<linearGradient id="paint11_linear_0_940" x1="602" y1="36" x2="602" y2="637" gradientUnits="userSpaceOnUse">
<stop stop-color="white" stop-opacity="0"/>
<stop offset="0.479167" stop-color="white" stop-opacity="0.02"/>
<stop offset="0.994792" stop-color="white" stop-opacity="0"/>
</linearGradient>
<linearGradient id="paint12_linear_0_940" x1="602" y1="137" x2="602" y2="738" gradientUnits="userSpaceOnUse">
<stop stop-color="white" stop-opacity="0"/>
<stop offset="0.479167" stop-color="white" stop-opacity="0.02"/>
<stop offset="0.994792" stop-color="white" stop-opacity="0"/>
</linearGradient>
<linearGradient id="paint13_linear_0_940" x1="602" y1="187" x2="602" y2="788" gradientUnits="userSpaceOnUse">
<stop stop-color="white" stop-opacity="0"/>
<stop offset="0.479167" stop-color="white" stop-opacity="0.02"/>
<stop offset="0.994792" stop-color="white" stop-opacity="0"/>
</linearGradient>
<linearGradient id="paint14_linear_0_940" x1="602" y1="237" x2="602" y2="838" gradientUnits="userSpaceOnUse">
<stop stop-color="white" stop-opacity="0"/>
<stop offset="0.479167" stop-color="white" stop-opacity="0.02"/>
<stop offset="0.994792" stop-color="white" stop-opacity="0"/>
</linearGradient>
<linearGradient id="paint15_linear_0_940" x1="602" y1="287" x2="602" y2="888" gradientUnits="userSpaceOnUse">
<stop stop-color="white" stop-opacity="0"/>
<stop offset="0.479167" stop-color="white" stop-opacity="0.02"/>
<stop offset="0.994792" stop-color="white" stop-opacity="0"/>
</linearGradient>
<linearGradient id="paint16_linear_0_940" x1="602" y1="337" x2="602" y2="938" gradientUnits="userSpaceOnUse">
<stop stop-color="white" stop-opacity="0"/>
<stop offset="0.479167" stop-color="white" stop-opacity="0.02"/>
<stop offset="0.994792" stop-color="white" stop-opacity="0"/>
</linearGradient>
<linearGradient id="paint17_linear_0_940" x1="602" y1="387" x2="602" y2="988" gradientUnits="userSpaceOnUse">
<stop stop-color="white" stop-opacity="0"/>
<stop offset="0.479167" stop-color="white" stop-opacity="0.02"/>
<stop offset="0.994792" stop-color="white" stop-opacity="0"/>
</linearGradient>
<linearGradient id="paint18_linear_0_940" x1="602" y1="437" x2="602" y2="1038" gradientUnits="userSpaceOnUse">
<stop stop-color="white" stop-opacity="0"/>
<stop offset="0.479167" stop-color="white" stop-opacity="0.02"/>
<stop offset="0.994792" stop-color="white" stop-opacity="0"/>
</linearGradient>
<linearGradient id="paint19_linear_0_940" x1="602" y1="487" x2="602" y2="1088" gradientUnits="userSpaceOnUse">
<stop stop-color="white" stop-opacity="0"/>
<stop offset="0.479167" stop-color="white" stop-opacity="0.02"/>
<stop offset="0.994792" stop-color="white" stop-opacity="0"/>
</linearGradient>
</defs>
</svg>
