<svg width="33" height="27" viewBox="0 0 33 27" fill="none" xmlns="http://www.w3.org/2000/svg">
<path d="M15.0754 1.93855L12.9477 0.00863518C4.93063 4.96226 1.17077 10.6075 0.165436 16.9433C-0.588835 22.1772 1.2872 26.311 6.04568 26.3142C9.42671 26.3164 12.6839 23.8391 13.4376 19.7071C14.0664 14.8863 11.5635 11.9919 8.43334 11.3011C9.68819 6.61843 14.9502 1.93846 15.0754 1.93855ZM25.8395 11.0372C27.2195 6.49239 32.231 1.95 32.3562 1.95008L30.2285 0.0201733C22.2115 4.9738 18.4516 10.619 17.4463 16.9548C16.692 22.1888 18.568 26.3225 23.3265 26.3257C26.7075 26.328 29.9647 23.8506 30.5932 19.7186C31.3472 14.8979 28.9697 11.728 25.8395 11.0372Z" fill="url(#paint0_radial_273_274)"/>
<defs>
<radialGradient id="paint0_radial_273_274" cx="0" cy="0" r="1" gradientUnits="userSpaceOnUse" gradientTransform="translate(9.25288 4.51648) rotate(63.0723) scale(24.4591 27.9742)">
<stop stop-color="white"/>
<stop offset="1" stop-color="#1C0531" stop-opacity="0.48"/>
</radialGradient>
</defs>
</svg>
