<svg width="70" height="70" viewBox="0 0 70 70" fill="none" xmlns="http://www.w3.org/2000/svg">
<rect width="70" height="70" rx="3" fill="white" fill-opacity="0.05"/>
<path d="M38.8125 26.25C40.0334 26.4882 41.1555 27.0853 42.0351 27.9649C42.9147 28.8445 43.5118 29.9666 43.75 31.1875L38.8125 26.25ZM38.8125 21.25C41.3491 21.5318 43.7145 22.6677 45.5203 24.4713C47.3261 26.2748 48.465 28.6388 48.75 31.175L38.8125 21.25ZM47.5 41.15V44.9C47.5014 45.2481 47.4301 45.5927 47.2906 45.9117C47.1512 46.2307 46.9466 46.517 46.6901 46.7523C46.4336 46.9877 46.1307 47.1669 45.8009 47.2784C45.4711 47.3899 45.1217 47.4313 44.775 47.4C40.9285 46.9821 37.2337 45.6677 33.9875 43.5625C30.9673 41.6433 28.4067 39.0827 26.4875 36.0625C24.375 32.8015 23.0603 29.0887 22.65 25.225C22.6187 24.8793 22.6598 24.531 22.7706 24.202C22.8814 23.8731 23.0594 23.5709 23.2934 23.3145C23.5274 23.0582 23.8122 22.8534 24.1297 22.7132C24.4472 22.5729 24.7904 22.5003 25.1375 22.5H28.8875C29.4941 22.494 30.0822 22.7088 30.5422 23.1044C31.0022 23.5 31.3026 24.0493 31.3875 24.65C31.5458 25.8501 31.8393 27.0284 32.2625 28.1625C32.4307 28.6099 32.4671 29.0961 32.3674 29.5636C32.2677 30.0311 32.0361 30.4601 31.7 30.8L30.1125 32.3875C31.8919 35.5169 34.4831 38.1081 37.6125 39.8875L39.2 38.3C39.5398 37.9639 39.9689 37.7323 40.4364 37.6326C40.9038 37.5329 41.3901 37.5693 41.8375 37.7375C42.9716 38.1607 44.1499 38.4542 45.35 38.6125C45.9572 38.6982 46.5117 39.004 46.9082 39.4719C47.3046 39.9397 47.5152 40.537 47.5 41.15Z" stroke="white" stroke-width="2" stroke-linecap="round" stroke-linejoin="round"/>
</svg>
